<svg xmlns="http://www.w3.org/2000/svg" viewBox="0 0 48 43.43"><defs><style>.cls-1{fill:#30b8a6;}</style></defs><title>Asset 20</title><g id="Layer_2" data-name="Layer 2"><g id="icons"><path class="cls-1" d="M23.37,20A4,4,0,0,1,22,19.74L7.12,14.38,7.8,12.5l14.92,5.35a1.91,1.91,0,0,0,1.29,0L46,10.7V9.16l-21.64-7a2.4,2.4,0,0,0-1.65,0L2,9.15v1.53l2.6.77L4,13.37,0,12.18V7.71L22.06.25A4.49,4.49,0,0,1,25,.25L48,7.7v4.46L24.66,19.75A4.05,4.05,0,0,1,23.37,20Z"/><path class="cls-1" d="M7,28.43H5v-12c0-2.8,1.37-3.77,2.51-4.1L22.7,7.48l.6,1.9L8.09,14.25c-.38.11-1.09.31-1.09,2.18Z"/><path class="cls-1" d="M24,29.43c-6.46,0-13-1.72-13-5v-9h2v9c0,1,3.88,3,11,3a32.53,32.53,0,0,0,3.88-.22l.24,2A36.69,36.69,0,0,1,24,29.43Z"/><rect class="cls-1" x="35" y="15.43" width="2" height="6"/><path class="cls-1" d="M40.33,43.43a2.14,2.14,0,0,1-.5-.06,2,2,0,0,1-1.25-.89L35.48,37l-2.93,2.84a1.55,1.55,0,0,1-1.68.39A1.48,1.48,0,0,1,30,38.83v-19L45.36,31a1.75,1.75,0,0,1,.51,2,1.77,1.77,0,0,1-1.61,1.4H41.31L44,39.14a2.21,2.21,0,0,1-.85,2.94l-1.56,1A2.47,2.47,0,0,1,40.33,43.43Zm-4.39-9.65,4.36,7.69s.11,0,.24-.11l1.56-1a.34.34,0,0,0,.18-.26l-4.43-7.69h6L32,23.8V37.59Z"/></g></g></svg>