<?xml version="1.0" encoding="utf-8"?>
<!-- Generator: Adobe Illustrator 16.0.0, SVG Export Plug-In . SVG Version: 6.00 Build 0)  -->
<!DOCTYPE svg PUBLIC "-//W3C//DTD SVG 1.1//EN" "http://www.w3.org/Graphics/SVG/1.1/DTD/svg11.dtd">
<svg version="1.1" id="Layer_1" xmlns="http://www.w3.org/2000/svg" xmlns:xlink="http://www.w3.org/1999/xlink" x="0px" y="0px"
	 width="117.215px" height="94.361px" viewBox="0 0 117.215 94.361" enable-background="new 0 0 117.215 94.361"
	 xml:space="preserve">
<ellipse fill="#F2F2F2" cx="61.776" cy="89.036" rx="55.438" ry="5.325"/>
<ellipse fill="#D6D6D6" cx="32.314" cy="88.672" rx="8.125" ry="0.99"/>
<ellipse fill="#D6D6D6" cx="100.536" cy="89.3" rx="7.901" ry="0.99"/>
<g>
	<path fill="#F7AF4D" d="M31.261,88.634c4.352,1.03,9.069-0.606,12.431-3.406c3.661-3.053,5.854-8.165,3.15-12.594
		c-1.433-2.349-3.756-4.014-6.307-4.971c-2.402-0.9-5.107-1.266-7.515-0.256c0.05-0.523,0.067-1.053,0.021-1.568
		c-0.117-1.33-0.368-2.752-1.05-3.922c-0.477-0.818-1.493-1.955-2.539-1.921c-0.515,0.019-0.877,0.429-1.176,0.8
		c-0.411,0.51-0.833,1.016-1.103,1.619c-0.206,0.457-0.3,0.734-0.824,0.856c-0.775,0.178-1.52-0.022-2.292,0.103
		c-0.624,0.101-1.356,0.445-1.599,1.07c-0.166,0.429-0.488,0.666-0.877,0.938c-1.009,0.713-2,1.617-1.482,2.993
		c0.912,2.419,3.753,3.31,5.943,4.347c-1.323,1.245-2.095,2.863-2.252,4.723C23.387,82.267,26.403,87.486,31.261,88.634z"/>
	<g>
		<path fill="#FFFFFF" d="M36.291,75.283c-0.728-0.743-1.722-0.595-2.424,0.094c-0.292,0.284-0.516,0.856-0.172,1.209
			c1.009,1.032,4.749-3.095,7.057-0.736c1.53,1.565,0.614,3.559-0.58,4.728c-0.121,0.119-0.25,0.227-0.37,0.323l0.628,0.644
			l-0.643,0.627l-0.776-0.793c-0.66,0.311-1.325,0.373-1.839,0.328l0.645,0.881l-1.755,1.717l-2.474-2.529l1.865-1.826
			c0.824,0.845,1.806,0.16,2.246-0.231c0.352-0.342,0.773-0.915,0.36-1.336c-0.766-0.784-4.292,3.315-6.795,0.758
			c-1.453-1.483-0.706-3.531,0.279-4.492c0.149-0.148,0.309-0.287,0.479-0.412l-0.728-0.745l0.644-0.628l0.875,0.893
			c0.576-0.249,1.193-0.342,1.828-0.137l-0.727-0.941l1.729-1.688l2.462,2.521L36.291,75.283z"/>
	</g>
	<g>
		<path fill="#E89A10" d="M33.961,66.893c-0.082,0.8-0.857,1.388-1.412,1.897c-0.702,0.643-1.453,1.223-2.23,1.773
			c-0.787,0.561-1.615,1.06-2.472,1.508c-0.784,0.41-1.675,0.939-2.572,0.994c-0.565,0.033-0.72-0.646-0.333-0.971
			c0.662-0.559,1.582-0.86,2.33-1.303c0.761-0.449,1.488-0.957,2.197-1.486c0.705-0.527,1.369-1.108,2.045-1.676
			c0.583-0.49,1.188-1.195,1.992-1.25C33.804,66.359,33.988,66.62,33.961,66.893L33.961,66.893z"/>
	</g>
	<g>
		<path fill="#E89A10" d="M33.607,66.52c0.29-0.985,1.076-1.888,1.651-2.718c0.313-0.451,1.907-2.469,1.062-2.972
			c-1.527-0.911-2.105,5.136-2.378,5.933c-0.075,0.217-0.398,0.121-0.414-0.078c-0.104-1.35,0.218-2.848,0.558-4.143
			c0.264-1.008,0.966-2.977,2.385-2.426c1.412,0.55,0.541,2.24,0.004,3.111c-0.434,0.699-0.935,1.373-1.465,2.002
			c-0.367,0.437-0.877,0.85-1.094,1.393C33.846,66.792,33.555,66.699,33.607,66.52L33.607,66.52z"/>
	</g>
	<g>
		<path fill="#E89A10" d="M33.77,66.039c0.452-1.211,1.575-1.865,2.714-2.357c0.948-0.408,2.562-0.904,3.526-0.301
			c0.998,0.623-0.454,1.612-0.97,1.875c-0.782,0.4-1.585,0.714-2.427,0.959c-0.813,0.233-1.764,0.504-2.613,0.402
			c-0.119-0.015-0.156-0.193-0.053-0.254c0.986-0.576,2.279-0.681,3.355-1.057c0.575-0.199,1.139-0.463,1.668-0.764
			c0.189-0.105,0.367-0.234,0.522-0.383c0.248-0.236,0.099-0.262-0.177-0.313c-0.979-0.182-2.072,0.203-2.953,0.59
			c-0.856,0.373-1.836,0.974-2.43,1.707C33.859,66.236,33.732,66.138,33.77,66.039L33.77,66.039z"/>
	</g>
</g>
<path fill="#EB9FA1" d="M115.655,38.083c-0.139-1.433-1.22-2.263-2.644-2.013c-1.932,0.34-3.756,1.191-5.652,1.675
	C105.727,18.817,91.158,3.028,70.828,1.054C60.674,0.068,51.344,0.341,42.436,5.365C28.802,13.054,18.463,27.631,19.314,43.45
	c-1.875,0.86-4.019,1.186-5.569-0.404c-0.151-0.155-0.417-0.475-0.708-0.876c1.979-2.082,3.071-6.335-0.298-6.975
	c-4.144-0.787-5.047,2.349-4.336,5.339c-1.019-0.188-2.042-0.66-2.682-1.03c-1.744-1.006-2.57-2.996-4.187-4.141
	c-0.483-0.341-1.161,0.019-1.312,0.534c-1.513,5.169,5.014,7.946,9.513,7.64c0.013,0.019,0.024,0.04,0.038,0.059
	c2.683,3.682,6.382,3.479,9.681,1.612c0.134,1.264,0.333,2.534,0.616,3.808c1.963,8.822,7.132,17.3,14.674,22.409
	c7.367,4.989,16.361,7.326,25.168,7.879c16.674,1.046,36.557-3.739,43.99-20.402c0.152-0.339,0.296-0.679,0.438-1.021
	c3.955,0.925,7.952,0.04,9.832-4.408C116.206,48.66,116.15,43.205,115.655,38.083z"/>
<g>
	<path fill="#282F39" d="M101.922,31.819c-0.049-2.113-0.852-4.203-2.956-4.987c-2.208-0.823-4.13,1.276-4.897,3.078
		c-0.65,1.524,1.59,2.853,2.246,1.313c0.26-0.607,0.871-2.091,1.783-1.93c1.033,0.182,1.202,1.717,1.222,2.525
		C99.357,33.495,101.961,33.499,101.922,31.819L101.922,31.819z"/>
</g>
<path fill="#D38793" d="M75.092,13.696c0.226,0.071,0.451,0.144,0.677,0.218c0.772,0.255,1.542,0.519,2.313,0.78
	c2.099,0.717,4.194,1.436,6.302,2.125c2.106,0.691,4.22,1.379,6.363,1.949c1.302,0.349,2.805,0.887,4.178,0.705
	c0.558-0.072,1.129-0.582,1.152-1.172c0.055-1.394,0.005-2.772-0.185-4.154c-0.003-0.053-0.01-0.105-0.019-0.162
	c-0.008-0.055-0.02-0.106-0.031-0.158c-0.898-4.993-3.613-9.199-6.46-13.308c-0.323-0.465-1.101-0.669-1.605-0.397
	c-5.421,2.924-11.209,5.822-13.938,11.685C73.438,12.663,74.218,13.692,75.092,13.696z M75.638,13.56
	c-0.026,0.016-0.056,0.026-0.087,0.037C75.58,13.584,75.609,13.576,75.638,13.56z"/>
<g>
	<path fill="#C65F70" d="M111.844,41.741c-1.226,2.31-1,5.133-2.043,7.531c-1.434,3.297,3.851,4.357,3.922,1.063
		c0.061-2.813,1.215-5.932-0.102-8.594C113.281,41.055,112.191,41.085,111.844,41.741L111.844,41.741z"/>
</g>
<path fill="#EB9FA1" d="M69.844,69.988c4.178-0.855,8.33-0.771,12.537-0.198c1.464,0.198,2.902,0.521,4.328,0.9
	c0.422,0.112,0.844,0.226,1.267,0.338c0.312,0.084,0.902,0.111,0.914,0.175c0.441,0.008,0.845,0.278,0.794,0.848
	c-0.269,3.015-0.771,6.017-1.096,9.029c-0.176,1.638-0.046,3.987-0.813,5.505c-0.532,1.051-1.657,1.439-2.68,1.85
	c-1.825,0.734-3.719,1.166-5.661,1.437c-3.26,0.453-8.338,0.846-9.57-3.091c-0.605-1.938-0.17-4.3-0.006-6.271
	c0.225-2.695-0.843-5.309-1.508-7.891C68.074,71.548,68.688,70.225,69.844,69.988z"/>
<path fill="#EB9FA1" d="M37.546,69.988c4.178-0.855,8.331-0.771,12.538-0.198c1.463,0.198,2.902,0.521,4.327,0.9
	c0.423,0.112,0.845,0.226,1.267,0.338c0.313,0.084,0.902,0.111,0.914,0.175c0.442,0.008,0.846,0.278,0.795,0.848
	c-0.27,3.015-0.771,6.017-1.096,9.029c-0.176,1.638-0.047,3.987-0.814,5.505c-0.531,1.051-1.657,1.439-2.68,1.85
	c-1.824,0.734-3.717,1.166-5.66,1.437c-3.262,0.453-8.34,0.846-9.571-3.091c-0.605-1.938-0.17-4.3-0.006-6.271
	c0.225-2.695-0.843-5.309-1.507-7.891C35.776,71.548,36.391,70.225,37.546,69.988z"/>
<g>
	<path fill="#FFFFFF" d="M42.004,10.887c-9.399,1.308-14.751,12.791-17.636,20.602c-1.211,3.279,4.107,4.758,5.244,1.445
		c2.718-7.922,6.864-14.276,13.519-19.369C44.484,12.528,43.68,10.655,42.004,10.887L42.004,10.887z"/>
</g>
<path fill="#F2B1C0" d="M70.018,9.407l-0.879-4.015c0,0-12.957-4.481-21.803,1.999l0.241,3.285
	C47.577,10.676,57.555,3.722,70.018,9.407z"/>
<path fill="#C35D6E" d="M70.4,11.07l-0.885-4.015c0,0-13.152-4.467-22.084,2.021l0.234,3.341C47.666,12.417,57.826,5.394,70.4,11.07
	z"/>
<g>
	<path fill="#F7AF4D" d="M107.884,79.557c-0.485-1.183-1.321-2.081-2.442-2.622c1.218-1.13,2.891-2.295,2.989-4.063
		c0.056-1.005-0.778-1.392-1.584-1.649c-0.31-0.098-0.569-0.188-0.766-0.434c-0.286-0.358-0.837-0.432-1.265-0.371
		c-0.531,0.079-0.976,0.361-1.519,0.405c-0.368,0.028-0.486-0.134-0.716-0.39c-0.299-0.34-0.678-0.584-1.053-0.832
		c-0.271-0.182-0.592-0.375-0.932-0.281c-0.691,0.193-1.121,1.145-1.265,1.778c-0.204,0.905-0.077,1.884,0.121,2.778
		c0.075,0.346,0.194,0.688,0.336,1.02c-1.78-0.164-3.474,0.631-4.858,1.713c-1.47,1.15-2.646,2.715-3.098,4.544
		c-0.856,3.45,1.627,6.341,4.647,7.583c2.772,1.139,6.191,1.236,8.822-0.33C108.242,86.656,109.141,82.625,107.884,79.557z"/>
	<g>
		<path fill="#FFFFFF" d="M101.511,81.573c0.185-0.688-0.248-1.223-0.899-1.397c-0.268-0.072-0.684-0.006-0.772,0.32
			c-0.257,0.955,3.479,1.723,2.893,3.904c-0.39,1.449-1.886,1.604-2.99,1.307c-0.112-0.03-0.221-0.068-0.32-0.105l-0.161,0.593
			l-0.594-0.159l0.198-0.733c-0.413-0.281-0.682-0.651-0.835-0.971l-0.293,0.687l-1.625-0.437l0.629-2.341l1.727,0.465
			c-0.209,0.78,0.537,1.12,0.921,1.243c0.325,0.088,0.809,0.138,0.913-0.251c0.195-0.727-3.451-1.379-2.814-3.746
			c0.369-1.373,1.838-1.646,2.747-1.4c0.14,0.037,0.275,0.084,0.409,0.139l0.186-0.687l0.595,0.161l-0.222,0.826
			c0.348,0.252,0.618,0.584,0.717,1.031l0.303-0.757l1.598,0.431l-0.629,2.33L101.511,81.573z"/>
	</g>
	<g>
		<path fill="#E89A10" d="M99.069,74.754c0.218,0.506,0.845,0.73,1.313,0.949c0.592,0.274,1.2,0.499,1.821,0.7
			c0.631,0.203,1.273,0.359,1.926,0.477c0.597,0.105,1.288,0.27,1.885,0.119c0.377-0.093,0.338-0.568,0.019-0.701
			c-0.548-0.229-1.21-0.236-1.79-0.372c-0.59-0.138-1.17-0.319-1.742-0.521c-0.568-0.199-1.122-0.441-1.68-0.674
			c-0.482-0.201-1.022-0.537-1.561-0.406C99.062,74.373,98.996,74.582,99.069,74.754L99.069,74.754z"/>
	</g>
	<g>
		<path fill="#E89A10" d="M99.224,74.438c-0.393-0.586-1.092-1.013-1.639-1.438c-0.296-0.229-1.753-1.22-1.305-1.723
			c0.812-0.909,2.433,2.923,2.774,3.388c0.093,0.125,0.285-0.003,0.254-0.137c-0.209-0.903-0.728-1.816-1.216-2.592
			c-0.38-0.605-1.243-1.746-2.058-1.095c-0.809,0.649,0.107,1.575,0.638,2.034c0.428,0.367,0.894,0.704,1.369,1.006
			c0.33,0.209,0.748,0.375,1.001,0.686C99.123,74.665,99.295,74.544,99.224,74.438L99.224,74.438z"/>
	</g>
	<g>
		<path fill="#E89A10" d="M99.02,74.156c-0.546-0.697-1.414-0.895-2.259-0.982c-0.704-0.07-1.859-0.063-2.366,0.529
			c-0.523,0.612,0.628,0.96,1.018,1.025c0.595,0.1,1.183,0.141,1.785,0.127c0.578-0.014,1.256-0.033,1.79-0.273
			c0.075-0.035,0.063-0.158-0.019-0.177c-0.763-0.175-1.629,0.023-2.409-0.001c-0.417-0.012-0.84-0.068-1.249-0.154
			c-0.143-0.031-0.285-0.079-0.418-0.144c-0.211-0.104-0.119-0.15,0.051-0.241c0.603-0.32,1.396-0.293,2.051-0.223
			c0.637,0.068,1.4,0.26,1.939,0.617C99.001,74.304,99.063,74.214,99.02,74.156L99.02,74.156z"/>
	</g>
</g>
</svg>