<svg
  id="Layer_1"
  data-name="Layer 1"
  xmlns="http://www.w3.org/2000/svg"
  viewBox="0 0 464.03 125.53"
>
  <defs>
    <style>
      .cls-1 {
        fill: #04d138;
      }
      .cls-2 {
        fill: #fdc010;
        
      }
      .cls-3 {
        fill: #fff;
      }
    </style>
  </defs>
  <rect
    class="cls-1"
    y="13.97"
    width="452.6"
    height="76.49"
    rx="9.08"
    ry="9.08"
  />
  <path
    class="cls-2"
    d="M431.68,16.18A16.18,16.18,0,1,0,447.85,0,16.17,16.17,0,0,0,431.68,16.18Z"
  />
  <path
    class="cls-3"
    d="M450,20.16a2.15,2.15,0,0,0-.41-1.66,5.21,5.21,0,0,0-1.9-1.45,10,10,0,0,1-3.27-2.47,4.17,4.17,0,0,1-.73-3.26,4.31,4.31,0,0,1,1.58-2.89,4.87,4.87,0,0,1,3.27-1L448.92,5l1.78.27-.35,2.44a4.63,4.63,0,0,1,2.75,2,5.58,5.58,0,0,1,.57,3.74L451,13.08a3.72,3.72,0,0,0-.3-2.32A2,2,0,0,0,449,9.69a2.25,2.25,0,0,0-1.8.36,2.34,2.34,0,0,0-.81,1.56,2.11,2.11,0,0,0,.36,1.67,5.67,5.67,0,0,0,2,1.46A10,10,0,0,1,452,17.23a4,4,0,0,1,.71,3.23,4,4,0,0,1-1.62,2.94,5.26,5.26,0,0,1-3.4.88l-.32,2.21-1.78-.26.3-2.19a5.34,5.34,0,0,1-3.07-1.92,4.68,4.68,0,0,1-.73-3.84h0l2.65.38a2.93,2.93,0,0,0,.45,2.39,2.79,2.79,0,0,0,1.86,1,2.75,2.75,0,0,0,2-.32A2.18,2.18,0,0,0,450,20.16Z"
  />
  <path
    class="cls-3"
    d="M51.9,56.29H37V72.18H29.2V33.3H53.77v6.49H37v10H51.9Z"
  />
  <path
    class="cls-3"
    d="M74,69.24a9.25,9.25,0,0,1-7.67,3.47q-4.52,0-6.88-2.67T57,62.22V43.28h7.49V62q0,4.52,4,4.52,3.81,0,5.23-2.73V43.28h7.52v28.9h-7Z"
  />
  <path
    class="cls-3"
    d="M93.81,43.28l.24,3.34a9.68,9.68,0,0,1,8.06-3.87q4.45,0,6.63,2.7c1.45,1.8,2.2,4.48,2.23,8.06V72.18h-7.49V53.7a5.13,5.13,0,0,0-1-3.57A4.54,4.54,0,0,0,99,49a5.14,5.14,0,0,0-4.75,2.77V72.18H86.76V43.28Z"
  />
  <path
    class="cls-3"
    d="M125.61,36.18v7.1h4.8V49h-4.8V63.37a3.49,3.49,0,0,0,.6,2.29,2.92,2.92,0,0,0,2.28.7,11.94,11.94,0,0,0,2.2-.19V72a15,15,0,0,1-4.53.69q-7.87,0-8-8.2V49H114V43.28h4.09v-7.1Z"
  />
  <path
    class="cls-3"
    d="M132.64,57.46a17.58,17.58,0,0,1,1.6-7.66,12.11,12.11,0,0,1,4.63-5.21,13.16,13.16,0,0,1,7-1.84,12.56,12.56,0,0,1,9.27,3.58,14.53,14.53,0,0,1,4,9.72l0,2q0,6.66-3.6,10.67a13.68,13.68,0,0,1-19.35,0q-3.62-4-3.61-10.9Zm7.49.55a11.06,11.06,0,0,0,1.5,6.3,5.3,5.3,0,0,0,8.55,0c1-1.44,1.53-3.73,1.53-6.89a11,11,0,0,0-1.53-6.26,4.92,4.92,0,0,0-4.3-2.22,4.85,4.85,0,0,0-4.25,2.21Q140.13,53.39,140.13,58Z"
  />
  <path
    class="cls-3"
    d="M179.57,50.52a19.88,19.88,0,0,0-2.69-.21q-4.24,0-5.57,3V72.18h-7.49V43.28h7.07l.21,3.45c1.5-2.65,3.59-4,6.25-4a7.68,7.68,0,0,1,2.33.35Z"
  />
  <path
    class="cls-3"
    d="M183.13,35.81A3.87,3.87,0,0,1,184.25,33a4.75,4.75,0,0,1,6.13,0,4.17,4.17,0,0,1,0,5.74,4.7,4.7,0,0,1-6.09,0A3.84,3.84,0,0,1,183.13,35.81Zm8,36.37h-7.51V43.28h7.51Z"
  />
  <path
    class="cls-3"
    d="M213.5,72.18a8.55,8.55,0,0,1-.75-2.59,8.94,8.94,0,0,1-7.08,3.12,9.83,9.83,0,0,1-6.83-2.45,8,8,0,0,1-2.7-6.2,8.26,8.26,0,0,1,3.3-7.05q3.3-2.46,9.55-2.48h3.45V52.87a4.83,4.83,0,0,0-1-3.2,3.83,3.83,0,0,0-3.15-1.21,4.41,4.41,0,0,0-3,.94A3.23,3.23,0,0,0,204.25,52h-7.49a7.9,7.9,0,0,1,1.5-4.64A10,10,0,0,1,202.51,44a15.1,15.1,0,0,1,6.17-1.21,12,12,0,0,1,8.23,2.68A9.54,9.54,0,0,1,220,53V65.5a14.12,14.12,0,0,0,1.12,6.22v.46Zm-6.19-5.37a6.24,6.24,0,0,0,3.05-.76,4.94,4.94,0,0,0,2.08-2V59h-2.8c-3.75,0-5.75,1.33-6,4l0,.45a3.14,3.14,0,0,0,1,2.38A3.79,3.79,0,0,0,207.31,66.81Z"
  />
  <path class="cls-3" d="M233.61,72.18H226.1v-41h7.51Z" />
  <path
    class="cls-3"
    d="M261.27,58.48v13.7h-7.78V33.3h14.72a16.57,16.57,0,0,1,7.48,1.6,11.53,11.53,0,0,1,5,4.55,13,13,0,0,1,1.74,6.72,11.29,11.29,0,0,1-3.8,9q-3.79,3.3-10.51,3.3Zm0-6.49h6.94a6.69,6.69,0,0,0,4.71-1.5,5.51,5.51,0,0,0,1.62-4.27,6.54,6.54,0,0,0-1.64-4.62,6,6,0,0,0-4.5-1.81h-7.13Z"
  />
  <path
    class="cls-3"
    d="M303.2,72.18a9.16,9.16,0,0,1-.75-2.59,8.93,8.93,0,0,1-7.07,3.12,9.8,9.8,0,0,1-6.83-2.45,8,8,0,0,1-2.71-6.2,8.26,8.26,0,0,1,3.3-7.05q3.32-2.46,9.55-2.48h3.45V52.87a4.83,4.83,0,0,0-1-3.2A3.83,3.83,0,0,0,298,48.46a4.36,4.36,0,0,0-3,.94A3.21,3.21,0,0,0,294,52h-7.49a7.9,7.9,0,0,1,1.5-4.64A10,10,0,0,1,292.21,44a15.13,15.13,0,0,1,6.17-1.21,12,12,0,0,1,8.23,2.68A9.54,9.54,0,0,1,309.66,53V65.5a14.14,14.14,0,0,0,1.11,6.22v.46ZM297,66.81a6.31,6.31,0,0,0,3.06-.76,5,5,0,0,0,2.07-2V59h-2.8c-3.75,0-5.74,1.33-6,4l0,.45a3.17,3.17,0,0,0,1,2.38A3.79,3.79,0,0,0,297,66.81Z"
  />
  <path
    class="cls-3"
    d="M331.17,50.52a20.14,20.14,0,0,0-2.7-.21q-4.25,0-5.57,3V72.18h-7.49V43.28h7.08l.2,3.45q2.26-4,6.25-4a7.63,7.63,0,0,1,2.33.35Z"
  />
  <path
    class="cls-3"
    d="M345,36.18v7.1h4.8V49H345V63.37a3.49,3.49,0,0,0,.6,2.29,2.92,2.92,0,0,0,2.28.7,11.94,11.94,0,0,0,2.2-.19V72a15,15,0,0,1-4.53.69q-7.87,0-8-8.2V49h-4.09V43.28h4.09v-7.1Z"
  />
  <path
    class="cls-3"
    d="M360.9,43.28l.23,3.34a9.68,9.68,0,0,1,8.06-3.87q4.46,0,6.63,2.7c1.46,1.8,2.2,4.48,2.23,8.06V72.18h-7.49V53.7a5.13,5.13,0,0,0-1-3.57,4.56,4.56,0,0,0-3.45-1.1,5.11,5.11,0,0,0-4.74,2.77V72.18h-7.49V43.28Z"
  />
  <path
    class="cls-3"
    d="M396.64,72.71a13.54,13.54,0,0,1-10.05-3.9q-3.87-3.9-3.87-10.38v-.75a17.92,17.92,0,0,1,1.63-7.79A12.2,12.2,0,0,1,389,44.61a12.65,12.65,0,0,1,6.83-1.86,11.46,11.46,0,0,1,9.05,3.74q3.31,3.73,3.31,10.6v3.15H390.31a7.23,7.23,0,0,0,2.19,4.54,6.51,6.51,0,0,0,4.63,1.71,8,8,0,0,0,6.76-3.23l3.68,4.25A11.36,11.36,0,0,1,403,71.34,14.68,14.68,0,0,1,396.64,72.71ZM395.78,49a4.59,4.59,0,0,0-3.61,1.56A8.12,8.12,0,0,0,390.39,55h10.42v-.62a5.91,5.91,0,0,0-1.35-4A4.74,4.74,0,0,0,395.78,49Z"
  />
  <path
    class="cls-3"
    d="M428.18,50.52a20.14,20.14,0,0,0-2.7-.21q-4.25,0-5.57,3V72.18h-7.49V43.28h7.08l.2,3.45q2.26-4,6.25-4a7.63,7.63,0,0,1,2.33.35Z"
  />
  <path
    class="cls-1"
    d="M14.69,118.61v6.66H10.9V106.35h7.17a8,8,0,0,1,3.63.78,5.65,5.65,0,0,1,2.42,2.21,6.37,6.37,0,0,1,.85,3.27A5.52,5.52,0,0,1,23.12,117,7.55,7.55,0,0,1,18,118.61Zm0-3.16h3.38a3.3,3.3,0,0,0,2.29-.73,2.71,2.71,0,0,0,.78-2.08,3.17,3.17,0,0,0-.79-2.25,2.9,2.9,0,0,0-2.2-.88H14.69Z"
  />
  <path
    class="cls-1"
    d="M86,118.35H83v6.92H79.23V106.35h6.82a7.58,7.58,0,0,1,5,1.49,5.24,5.24,0,0,1,1.77,4.23A6,6,0,0,1,92,115.3a5.66,5.66,0,0,1-2.47,2.06l4,7.73v.18H89.47Zm-3-3.16h3.06a3,3,0,0,0,2.2-.75,2.7,2.7,0,0,0,.79-2.06,3,3,0,0,0-.74-2.11,3,3,0,0,0-2.27-.76H83Z"
  />
  <path
    class="cls-1"
    d="M162.47,116.24a11.71,11.71,0,0,1-1,4.9,7.38,7.38,0,0,1-2.74,3.25,7.52,7.52,0,0,1-11-3.22,11.5,11.5,0,0,1-1-4.83v-.93a11.49,11.49,0,0,1,1-4.92,7.47,7.47,0,0,1,13.68,0,11.61,11.61,0,0,1,1,4.9Zm-3.84-.86a8.15,8.15,0,0,0-1-4.52,3.59,3.59,0,0,0-5.89,0,8.07,8.07,0,0,0-1.05,4.48v.92a8.28,8.28,0,0,0,1,4.5,3.33,3.33,0,0,0,3,1.59,3.3,3.3,0,0,0,2.93-1.54,8.12,8.12,0,0,0,1-4.49Z"
  />
  <path
    class="cls-1"
    d="M231.42,122.88a6.71,6.71,0,0,1-2.89,2,11.91,11.91,0,0,1-4.14.69,8,8,0,0,1-4.18-1.07,7,7,0,0,1-2.78-3.11,11.32,11.32,0,0,1-1-4.8v-1.29a11.9,11.9,0,0,1,.93-4.9,7,7,0,0,1,2.67-3.17,8.59,8.59,0,0,1,9.2.5,7,7,0,0,1,2.19,4.68h-3.69a3.83,3.83,0,0,0-1.11-2.38,3.52,3.52,0,0,0-2.38-.76,3.32,3.32,0,0,0-2.94,1.5,8.07,8.07,0,0,0-1,4.44v1.21a7.58,7.58,0,0,0,1.1,4.5,3.71,3.71,0,0,0,3.21,1.52,4.08,4.08,0,0,0,3-.94V118.2h-3.44v-2.87h7.23Z"
  />
  <path
    class="cls-1"
    d="M293,118.35h-3v6.92h-3.78V106.35H293a7.59,7.59,0,0,1,5,1.49,5.24,5.24,0,0,1,1.77,4.23,5.89,5.89,0,0,1-.82,3.23,5.57,5.57,0,0,1-2.46,2.06l4,7.73v.18h-4.06Zm-3-3.16H293a3.07,3.07,0,0,0,2.21-.75,2.73,2.73,0,0,0,.78-2.06,2.94,2.94,0,0,0-.73-2.11,3,3,0,0,0-2.27-.76h-3Z"
  />
  <path
    class="cls-1"
    d="M364.67,121.37H358l-1.26,3.9h-4l6.83-18.92h3.51L370,125.27h-4Zm-5.62-3.16h4.6l-2.31-7.08Z"
  />
  <path
    class="cls-1"
    d="M428.29,106.35,433,120.07l4.69-13.72h5v18.92h-3.8V120.1l.38-8.93-4.95,14.1h-2.6l-4.95-14.09.38,8.92v5.17h-3.78V106.35Z"
  />
</svg>
