<svg id="Layer_1" data-name="Layer 1" xmlns="http://www.w3.org/2000/svg" xmlns:xlink="http://www.w3.org/1999/xlink" viewBox="0 0 592.29 320.8"><defs><style>.cls-1{fill:none;}.cls-2{fill:#efbab6;}.cls-3{fill:#ebb1af;}.cls-4{clip-path:url(#clip-path);}.cls-5{clip-path:url(#clip-path-2);}.cls-6{fill:#f6d7d3;}.cls-7{fill:#c44e4f;}.cls-8{clip-path:url(#clip-path-3);}.cls-9{fill:#bf9290;}.cls-10{fill:#1b1916;}.cls-11{fill:#fff;}.cls-12{fill:#754d25;}.cls-13{fill:#323956;}.cls-14{fill:url(#linear-gradient);}.cls-15{fill:url(#linear-gradient-2);}.cls-16{fill:url(#linear-gradient-3);}.cls-17{fill:url(#linear-gradient-4);}.cls-18{fill:url(#linear-gradient-5);}.cls-19{fill:url(#linear-gradient-6);}.cls-20{fill:#8f94aa;opacity:0.26;isolation:isolate;}.cls-21{fill:#ededee;}.cls-22{fill:#d3d3d3;}.cls-23{clip-path:url(#clip-path-4);}.cls-24{clip-path:url(#clip-path-5);}.cls-25{clip-path:url(#clip-path-6);}.cls-26{fill:#a3a3a2;}.cls-27{clip-path:url(#clip-path-7);}.cls-28{clip-path:url(#clip-path-8);}.cls-29{clip-path:url(#clip-path-9);}.cls-30{clip-path:url(#clip-path-10);}.cls-31{clip-path:url(#clip-path-11);}.cls-32{clip-path:url(#clip-path-12);}.cls-33{clip-path:url(#clip-path-13);}.cls-34{clip-path:url(#clip-path-14);}.cls-35{clip-path:url(#clip-path-15);}.cls-36{clip-path:url(#clip-path-16);}.cls-37{clip-path:url(#clip-path-17);}.cls-38{clip-path:url(#clip-path-18);}.cls-39{fill:#f79421;}.cls-40{clip-path:url(#clip-path-19);}.cls-41{clip-path:url(#clip-path-20);}.cls-42{clip-path:url(#clip-path-21);}.cls-43{fill:#f36b21;}.cls-44{fill:#c95727;}.cls-45{clip-path:url(#clip-path-22);}.cls-46{clip-path:url(#clip-path-23);}.cls-47{clip-path:url(#clip-path-24);}.cls-48{fill:#603a17;}.cls-49{fill:#945122;}.cls-50{fill:#fdb932;}.cls-51{fill:url(#linear-gradient-7);}.cls-52{clip-path:url(#clip-path-25);}.cls-53{fill:url(#linear-gradient-8);}</style><clipPath id="clip-path"><path class="cls-1" d="M166.05,293.42s.57,18.06,1.17,19.85,7.92.8,10.61.92,8.94,1.31,8.7-3.2-.25-10.25-.25-10.25l-5.16-7.52-13-1.91Z"/></clipPath><clipPath id="clip-path-2"><path class="cls-1" d="M232.21,293.42s-.57,18.06-1.17,19.85-7.92.8-10.62.92-8.93,1.31-8.69-3.2.25-10.25.25-10.25l5.16-7.52,13-1.91Z"/></clipPath><clipPath id="clip-path-3"><circle class="cls-1" cx="199.1" cy="239.22" r="46.84"/></clipPath><linearGradient id="linear-gradient" x1="203.94" y1="94.53" x2="229.28" y2="94.53" gradientTransform="matrix(1, 0, 0, -1, 0, 317.57)" gradientUnits="userSpaceOnUse"><stop offset="0" stop-color="#59607e"/><stop offset="0.5" stop-color="#b9bece"/><stop offset="1" stop-color="#59607e"/></linearGradient><linearGradient id="linear-gradient-2" x1="64.71" y1="94.53" x2="90.04" y2="94.53" gradientTransform="translate(256.73 317.57) rotate(180)" xlink:href="#linear-gradient"/><linearGradient id="linear-gradient-3" x1="-3640.71" y1="-3358.77" x2="-3640.71" y2="-3344.24" gradientTransform="translate(3146.99 -3785.52) rotate(-96.91)" gradientUnits="userSpaceOnUse"><stop offset="0" stop-color="#59607e"/><stop offset="1" stop-color="#9ea2b6"/></linearGradient><linearGradient id="linear-gradient-4" x1="-4515.46" y1="4063.09" x2="-4515.46" y2="4075.98" gradientTransform="matrix(0.12, -0.99, -0.99, -0.12, 4721.88, -3787.76)" xlink:href="#linear-gradient-3"/><linearGradient id="linear-gradient-5" x1="193.89" y1="92.6" x2="202.08" y2="92.6" xlink:href="#linear-gradient"/><linearGradient id="linear-gradient-6" x1="185.41" y1="95.82" x2="210.55" y2="95.82" xlink:href="#linear-gradient"/><clipPath id="clip-path-4"><path class="cls-1" d="M28.34,293.42s.56,18.06,1.17,19.85,7.92.8,10.61.92,8.94,1.31,8.7-3.2-.25-10.25-.25-10.25l-5.16-7.52-13-1.91Z"/></clipPath><clipPath id="clip-path-5"><path class="cls-1" d="M94.5,293.42s-.57,18.06-1.17,19.85-7.93.8-10.62.92S73.78,315.5,74,311s.25-10.25.25-10.25l5.16-7.52,12.95-1.91Z"/></clipPath><clipPath id="clip-path-6"><circle class="cls-1" cx="61.38" cy="239.22" r="46.84"/></clipPath><clipPath id="clip-path-7"><path class="cls-1" d="M92.78,140.71s.57,18,1.17,19.84,7.92.8,10.62.92,8.93,1.31,8.69-3.2S113,148,113,148l-5.16-7.52L94.9,138.59Z"/></clipPath><clipPath id="clip-path-8"><path class="cls-1" d="M158.94,140.71s-.57,18-1.17,19.84-7.92.8-10.62.92-8.93,1.31-8.69-3.2.25-10.25.25-10.25l5.16-7.52,12.95-1.91Z"/></clipPath><clipPath id="clip-path-9"><circle class="cls-1" cx="125.83" cy="86.5" r="46.84"/></clipPath><clipPath id="clip-path-10"><path class="cls-1" d="M23,140.71s-.56,18-1.17,19.84-7.92.8-10.61.92-8.94,1.31-8.69-3.2S2.77,148,2.77,148l5.16-7.52,13-1.91Z"/></clipPath><clipPath id="clip-path-11"><path class="cls-1" d="M433.47,293.42s.56,18.06,1.17,19.85,7.92.8,10.61.92,8.94,1.31,8.69-3.2-.24-10.25-.24-10.25l-5.16-7.52-13-1.91Z"/></clipPath><clipPath id="clip-path-12"><path class="cls-1" d="M499.63,293.42s-.57,18.06-1.17,19.85-7.93.8-10.62.92-8.93,1.31-8.69-3.2.24-10.25.24-10.25l5.17-7.52,12.95-1.91Z"/></clipPath><clipPath id="clip-path-13"><circle class="cls-1" cx="466.51" cy="239.22" r="46.84"/></clipPath><clipPath id="clip-path-14"><path class="cls-1" d="M490.91,144.24s.56,18,1.17,19.84,7.92.8,10.61.92,8.94,1.31,8.7-3.2-.25-10.25-.25-10.25L506,144l-13-1.91Z"/></clipPath><clipPath id="clip-path-15"><path class="cls-1" d="M557.07,144.24s-.57,18-1.17,19.84-7.93.8-10.62.92-8.93,1.31-8.69-3.2.25-10.25.25-10.25L542,144l13-1.91Z"/></clipPath><clipPath id="clip-path-16"><circle class="cls-1" cx="523.95" cy="90.04" r="46.84" transform="translate(361.86 596.36) rotate(-82)"/></clipPath><clipPath id="clip-path-17"><path class="cls-1" d="M359.33,145.43s.58,18.67,1.21,20.52,8.19.83,11,1,9.24,1.35,9-3.31-.26-10.61-.26-10.61l-5.34-7.77-13.4-2Z"/></clipPath><clipPath id="clip-path-18"><path class="cls-1" d="M427.42,145.43s-.58,18.67-1.21,20.52-8.19.83-11,1-9.25,1.35-9-3.31.26-10.61.26-10.61l5.34-7.77,13.4-2Z"/></clipPath><clipPath id="clip-path-19"><path class="cls-1" d="M230.24,141s.58,18.67,1.21,20.52,8.2.83,11,1,9.24,1.35,9-3.32-.26-10.6-.26-10.6l-5.36-7.78-13.4-2Z"/></clipPath><clipPath id="clip-path-20"><path class="cls-1" d="M293,141s-.58,18.67-1.21,20.52-8.19.83-11,1-9.25,1.35-9-3.32.26-10.6.26-10.6l5.34-7.77,13.4-2Z"/></clipPath><clipPath id="clip-path-21"><path class="cls-1" d="M311,85a48.45,48.45,0,1,1-48.45-48.45A48.45,48.45,0,0,1,311,85Z"/></clipPath><clipPath id="clip-path-22"><path class="cls-1" d="M300.45,292.84s.58,18.67,1.21,20.53,8.19.82,11,.95,9.24,1.36,9-3.31-.26-10.61-.26-10.61l-5.4-7.76-13.39-2Z"/></clipPath><clipPath id="clip-path-23"><path class="cls-1" d="M363.25,292.84s-.59,18.67-1.21,20.53-8.19.82-11,.95-9.24,1.36-9-3.31.25-10.61.25-10.61l5.35-7.77,13.39-2Z"/></clipPath><clipPath id="clip-path-24"><path class="cls-1" d="M381.23,236.84a48.45,48.45,0,1,1-48.46-48.44h0a48.44,48.44,0,0,1,48.44,48.44Z"/></clipPath><linearGradient id="linear-gradient-7" x1="-0.01" y1="157.17" x2="174.78" y2="157.17" gradientTransform="matrix(1, 0, 0, -1, 0, 317.57)" gradientUnits="userSpaceOnUse"><stop offset="0" stop-color="#fff"/><stop offset="0.11" stop-color="#fff" stop-opacity="0.87"/><stop offset="0.44" stop-color="#fff" stop-opacity="0.5"/><stop offset="0.71" stop-color="#fff" stop-opacity="0.23"/><stop offset="0.9" stop-color="#fff" stop-opacity="0.06"/><stop offset="1" stop-color="#fff" stop-opacity="0"/></linearGradient><clipPath id="clip-path-25"><path class="cls-1" d="M571.32,289.4l13,1.91,5.16,7.52s0,5.74.24,10.25-6,3.32-8.69,3.2-10,.92-10.61-.92-1.17-19.84-1.17-19.84Z"/></clipPath><linearGradient id="linear-gradient-8" x1="417.71" y1="157.17" x2="592.26" y2="157.17" gradientTransform="matrix(1, 0, 0, -1, 0, 317.57)" gradientUnits="userSpaceOnUse"><stop offset="0" stop-color="#fff" stop-opacity="0"/><stop offset="0.1" stop-color="#fff" stop-opacity="0.06"/><stop offset="0.29" stop-color="#fff" stop-opacity="0.23"/><stop offset="0.56" stop-color="#fff" stop-opacity="0.5"/><stop offset="0.89" stop-color="#fff" stop-opacity="0.87"/><stop offset="1" stop-color="#fff"/></linearGradient></defs><title>funtorial-partners</title><path class="cls-2" d="M150.43,221.18s1.84-17.42,3.16-27.14c.86-6.3.63-5.52.63-5.52s2.32,2.52,8.1,3.47,13.13,6.53,13.13,6.53l-2.34,4-14.2,8.72Z"/><path class="cls-3" d="M173,206a8.37,8.37,0,1,0-8.47,8.27h.1A8.32,8.32,0,0,0,173,206Z"/><path class="cls-2" d="M247.74,221.18s-1.83-17.42-3.16-27.14c-.85-6.3-.63-5.52-.63-5.52s-2.32,2.52-8.09,3.47-13.13,6.53-13.13,6.53l2.33,4,14.21,8.72Z"/><path class="cls-3" d="M225.14,206a8.37,8.37,0,1,1,8.47,8.27h-.1a8.31,8.31,0,0,1-8.37-8.25Z"/><path class="cls-2" d="M166.05,293.42s.57,18.06,1.17,19.85,7.92.8,10.61.92,8.94,1.31,8.7-3.2-.25-10.25-.25-10.25l-5.16-7.52-13-1.91Z"/><g class="cls-4"><path class="cls-3" d="M173.23,288.84l1.06,17.47s-.22,8.5,3.66,12.62,12.44-9.21,12.44-9.21l-3-15.49Z"/></g><path class="cls-2" d="M232.21,293.42s-.57,18.06-1.17,19.85-7.92.8-10.62.92-8.93,1.31-8.69-3.2.25-10.25.25-10.25l5.16-7.52,13-1.91Z"/><g class="cls-5"><path class="cls-3" d="M225,288.84l-1,17.43s.23,8.5-3.66,12.62-12.45-9.21-12.45-9.21l3-15.49Z"/></g><path class="cls-3" d="M256.19,249.47a57.09,57.09,0,1,1-57.09-57.09h0A57.09,57.09,0,0,1,256.19,249.47Z"/><circle class="cls-2" cx="199.1" cy="239.22" r="46.84"/><path class="cls-6" d="M217.89,256.44c0,6.76-8.91,12.25-19.91,12.25s-19.91-5.49-19.91-12.25S187,244.18,198,244.18,217.89,249.67,217.89,256.44Z"/><path class="cls-7" d="M195.17,256.44a3.59,3.59,0,1,1-3.59-3.59h0a3.58,3.58,0,0,1,3.59,3.57Z"/><path class="cls-7" d="M208,256.44a3.59,3.59,0,1,1-3.59-3.59h0a3.58,3.58,0,0,1,3.59,3.57Z"/><g class="cls-8"><path class="cls-9" d="M199,183.25h.15a2.16,2.16,0,0,1,2.16,2.16h0v15.73a2.15,2.15,0,0,1-2.15,2.15H199a2.15,2.15,0,0,1-2.15-2.15V185.4A2.15,2.15,0,0,1,199,183.25Z"/></g><path class="cls-10" d="M187,232.57a6.23,6.23,0,1,0-6.23,6.23h0A6.24,6.24,0,0,0,187,232.57Z"/><path class="cls-11" d="M184.28,230.9a1.55,1.55,0,1,1-1.55-1.55h0a1.54,1.54,0,0,1,1.54,1.54Z"/><path class="cls-10" d="M224.12,232.57a6.23,6.23,0,1,0-6.23,6.23h0A6.24,6.24,0,0,0,224.12,232.57Z"/><path class="cls-11" d="M221.4,230.9a1.55,1.55,0,1,1-1.55-1.55,1.54,1.54,0,0,1,1.55,1.55Z"/><path class="cls-12" d="M208.71,274.35a42.08,42.08,0,0,1-11.46,1.1c-.56,0-2,0-1.27.58a4.05,4.05,0,0,0,1.18.58,24.77,24.77,0,0,0,9.46.82,22.38,22.38,0,0,0,3.9-.66,28.9,28.9,0,0,0,5.62-2.06,9.24,9.24,0,0,0,3.73-2.81,1.69,1.69,0,0,0,.27-1.14.6.6,0,0,0-.69-.42,5.16,5.16,0,0,0-1.32.51c-.95.38-1.85.8-2.77,1.21a44.22,44.22,0,0,1-5.09,1.85Z"/><path id="_Path_" data-name=" Path " class="cls-13" d="M167.17,222.93c3.09-2,21.88-1.87,25.12,1.37,2.94,2.94,2.45,11.67-2.95,17.07s-19.78,4.39-23.22-.34C162.81,236.47,162.52,225.89,167.17,222.93Z"/><path id="_Path_2" data-name=" Path 2" class="cls-10" d="M177.93,244.24c-5,0-9.63-1.5-11.2-3.66-1.93-2.67-2.81-7.75-2-11.83.33-1.73,1.09-4,2.88-5.18,1.09-.7,5.11-1.19,9.75-1.19,7,0,13,1,14.42,2.46,1.29,1.29,1.84,4,1.44,7a15.85,15.85,0,0,1-4.39,9C186.67,243,182.6,244.24,177.93,244.24Z"/><path id="_Path_3" data-name=" Path 3" class="cls-13" d="M228.8,222.93c-3.09-2-21.88-1.87-25.13,1.37-2.94,2.94-2.45,11.67,3,17.07s19.78,4.39,23.23-.34C233.16,236.47,233.44,225.89,228.8,222.93Z"/><path id="_Path_4" data-name=" Path 4" class="cls-14" d="M229.06,223.32l.22.15-.48-.35c-3-1.92-21-1.87-24.86,1.14C208.46,221.45,226.05,221.45,229.06,223.32Z"/><path id="_Path_5" data-name=" Path 5" class="cls-15" d="M166.9,223.32l-.21.15a5.92,5.92,0,0,1,.48-.35c3-1.92,21-1.87,24.85,1.14C187.51,221.45,169.92,221.45,166.9,223.32Z"/><path id="_Path_6" data-name=" Path 6" class="cls-10" d="M218,244.24c5,0,9.62-1.5,11.19-3.66,1.93-2.67,2.81-7.75,2-11.83-.33-1.73-1.1-4-2.88-5.18-1.1-.7-5.11-1.19-9.76-1.19-7,0-13,1-14.42,2.46-1.29,1.29-1.84,4-1.44,7a16,16,0,0,0,4.39,9C209.29,243,213.36,244.24,218,244.24Z"/><path id="_Path_7" data-name=" Path 7" class="cls-16" d="M234.36,228.6c6.42-2.94,8.93-4.58,13.5-8.87l-.23-.38c-4.09,3.51-6,4.67-13.48,8.23Z"/><path id="_Path_8" data-name=" Path 8" class="cls-13" d="M234.28,227.49c.22,0,.29.38.42.51l.23.2c.15.1.15.14.12.32a2.66,2.66,0,0,1-.07.39,4.07,4.07,0,0,1-1.41,1.64,7.2,7.2,0,0,1-1.43.45l-.17-2a3,3,0,0,0,1.46-.65c.25-.19.41-.77.72-.87Z"/><path id="_Path_9" data-name=" Path 9" class="cls-17" d="M161.67,228.6c-6.43-2.94-7.39-3.51-12-7.81l.24-.38c4.09,3.52,4.51,3.61,11.94,7.17Z"/><path id="_Path_10" data-name=" Path 10" class="cls-13" d="M161.74,227.49c-.22,0-.29.38-.42.51a2.09,2.09,0,0,1-.22.2c-.15.1-.16.14-.13.32s0,.26.08.39a3.94,3.94,0,0,0,1.41,1.64,7.1,7.1,0,0,0,1.42.45l.17-2a3.13,3.13,0,0,1-1.45-.65c-.26-.19-.42-.77-.72-.87Z"/><path id="_Path_11" data-name=" Path 11" class="cls-13" d="M201.75,228.54a.38.38,0,0,1-.38-.38h0V226c0-.39-.62-1.5-3.39-1.5s-3.38,1.11-3.38,1.5v2.17a.39.39,0,0,1-.77,0V226s0-2.26,4.15-2.26,4.15,2.24,4.15,2.26v2.17A.38.38,0,0,1,201.75,228.54Z"/><path id="_Path_12" data-name=" Path 12" class="cls-18" d="M198,224.08c3.23,0,3.94,1.38,4.1,2,0-.33-.38-2.22-4.1-2.22s-4.06,1.89-4.09,2.22C194,225.46,194.76,224.08,198,224.08Z"/><path id="_Path_13" data-name=" Path 13" class="cls-13" d="M210.73,222.27h-25.5a.39.39,0,0,1,0-.77h25.5a.39.39,0,0,1,0,.77Z"/><path id="_Path_14" data-name=" Path 14" class="cls-19" d="M210.19,221.84H185.78c-.2,0-.37,0-.37-.09s.17-.1.37-.1h24.41c.2,0,.36,0,.36.1S210.39,221.84,210.19,221.84Z"/><path id="_Path_15" data-name=" Path 15" class="cls-20" d="M203.37,232.1v-.36c-.38-2.85.12-5.35,1.29-6.52,1.33-1.33,7.24-2.3,14-2.3,5.08,0,8.61.56,9.47,1.1,1.63,1,2.34,3.2,2.64,4.83a17.82,17.82,0,0,1,.17,5C223.63,228.94,209.89,229.46,203.37,232.1Z"/><path id="_Path_16" data-name=" Path 16" class="cls-20" d="M192.6,232.1V232a1.13,1.13,0,0,0,0-.26c.38-2.85-.11-5.35-1.29-6.52-1.33-1.33-7.23-2.3-14-2.3-5.08,0-8.6.56-9.47,1.1-1.62,1-2.33,3.2-2.64,4.83a17.82,17.82,0,0,0-.17,5C172.34,228.94,186.07,229.46,192.6,232.1Z"/><path class="cls-21" d="M12.72,221.18s1.83-17.42,3.16-27.14c.86-6.3.63-5.52.63-5.52s2.32,2.52,8.1,3.47,13.12,6.53,13.12,6.53l-2.33,4-14.2,8.72Z"/><path class="cls-22" d="M35.33,206a8.37,8.37,0,1,0-8.47,8.27H27A8.32,8.32,0,0,0,35.33,206Z"/><path class="cls-21" d="M110,221.18s-1.83-17.42-3.16-27.14c-.86-6.3-.63-5.52-.63-5.52S103.89,191,98.12,192,85,198.52,85,198.52l2.33,4,14.21,8.72Z"/><path class="cls-22" d="M87.43,206a8.37,8.37,0,1,1,8.47,8.27h-.1A8.31,8.31,0,0,1,87.43,206Z"/><path class="cls-2" d="M28.34,293.42s.56,18.06,1.17,19.85,7.92.8,10.61.92,8.94,1.31,8.7-3.2-.25-10.25-.25-10.25l-5.16-7.52-13-1.91Z"/><path class="cls-22" d="M28.34,293.42s.56,18.06,1.17,19.85,7.92.8,10.61.92,8.94,1.31,8.7-3.2-.25-10.25-.25-10.25l-5.16-7.52-13-1.91Z"/><g class="cls-23"><path class="cls-22" d="M35.52,288.84l1.06,17.47s-.23,8.5,3.66,12.62,12.44-9.21,12.44-9.21l-3-15.49Z"/></g><path class="cls-2" d="M94.5,293.42s-.57,18.06-1.17,19.85-7.93.8-10.62.92S73.78,315.5,74,311s.25-10.25.25-10.25l5.16-7.52,12.95-1.91Z"/><path class="cls-22" d="M94.5,293.42s-.57,18.06-1.17,19.85-7.93.8-10.62.92S73.78,315.5,74,311s.25-10.25.25-10.25l5.16-7.52,12.95-1.91Z"/><g class="cls-24"><path class="cls-22" d="M87.32,288.84l-1.06,17.47s.23,8.5-3.66,12.62-12.45-9.21-12.45-9.21l3-15.49Z"/></g><path class="cls-21" d="M118.48,249.47a57.1,57.1,0,1,1-57.11-57.09h0a57.09,57.09,0,0,1,57.1,57.08Z"/><circle class="cls-22" cx="61.38" cy="239.22" r="46.84"/><path class="cls-21" d="M80.18,256.44c0,6.76-8.91,12.25-19.91,12.25s-19.91-5.49-19.91-12.25,8.91-12.26,19.91-12.26S80.18,249.67,80.18,256.44Z"/><path class="cls-22" d="M57.46,256.44a3.59,3.59,0,1,1-3.59-3.6,3.59,3.59,0,0,1,3.59,3.6Z"/><path class="cls-22" d="M70.26,256.44a3.59,3.59,0,1,1-3.59-3.6,3.59,3.59,0,0,1,3.59,3.6Z"/><g class="cls-25"><path class="cls-21" d="M61.31,183.25h.15a2.16,2.16,0,0,1,2.16,2.16h0v15.73a2.15,2.15,0,0,1-2.15,2.15h-.15a2.15,2.15,0,0,1-2.15-2.15V185.4A2.16,2.16,0,0,1,61.31,183.25Z"/></g><path class="cls-26" d="M49.3,232.57a6.23,6.23,0,1,0-6.23,6.27,6.23,6.23,0,0,0,6.23-6.27Z"/><path class="cls-21" d="M46.57,230.9A1.55,1.55,0,1,1,45,229.35a1.54,1.54,0,0,1,1.57,1.55Z"/><path class="cls-26" d="M86.41,232.57a6.23,6.23,0,1,0-6.23,6.27,6.23,6.23,0,0,0,6.23-6.27Z"/><path class="cls-21" d="M83.68,230.9a1.54,1.54,0,1,1-1.54-1.55,1.54,1.54,0,0,1,1.54,1.55Z"/><path class="cls-21" d="M77.16,68.46S79,51,80.32,41.32c.86-6.3.68-5.48.68-5.48s2.32,2.51,8.1,3.46,13.08,6.54,13.08,6.54l-2.34,4-14.2,8.72Z"/><path class="cls-22" d="M99.77,53.29a8.37,8.37,0,1,0-8.47,8.27h.1a8.32,8.32,0,0,0,8.37-8.27Z"/><path class="cls-21" d="M174.47,68.46S172.64,51,171.31,41.32c-.85-6.3-.63-5.51-.63-5.51s-2.32,2.51-8.09,3.46-13.13,6.57-13.13,6.57l2.33,4L166,58.5Z"/><path class="cls-22" d="M151.87,53.29a8.37,8.37,0,1,1,8.47,8.27h-.1a8.32,8.32,0,0,1-8.37-8.27Z"/><path class="cls-2" d="M92.78,140.71s.57,18,1.17,19.84,7.92.8,10.62.92,8.93,1.31,8.69-3.2S113,148,113,148l-5.16-7.52L94.9,138.59Z"/><path class="cls-22" d="M92.78,140.71s.57,18,1.17,19.84,7.92.8,10.62.92,8.93,1.31,8.69-3.2S113,148,113,148l-5.16-7.52L94.9,138.59Z"/><g class="cls-27"><path class="cls-22" d="M100,136.09l1,17.46s-.23,8.5,3.65,12.63S117.09,157,117.09,157l-3-15.49Z"/></g><path class="cls-2" d="M158.94,140.71s-.57,18-1.17,19.84-7.92.8-10.62.92-8.93,1.31-8.69-3.2.25-10.25.25-10.25l5.16-7.52,12.95-1.91Z"/><path class="cls-22" d="M158.94,140.71s-.57,18-1.17,19.84-7.92.8-10.62.92-8.93,1.31-8.69-3.2.25-10.25.25-10.25l5.16-7.52,12.95-1.91Z"/><g class="cls-28"><path class="cls-22" d="M151.77,136.09l-1.07,17.46s.23,8.5-3.66,12.63S134.6,157,134.6,157l3-15.49Z"/></g><path class="cls-21" d="M182.92,96.76a57.09,57.09,0,1,1-57.09-57.1,57.09,57.09,0,0,1,57.09,57.1Z"/><circle class="cls-22" cx="125.83" cy="86.5" r="46.84"/><path class="cls-21" d="M144.62,103.72c0,6.77-8.91,12.25-19.91,12.25s-19.91-5.48-19.91-12.25,8.92-12.26,19.91-12.26S144.62,97,144.62,103.72Z"/><path class="cls-22" d="M121.9,103.72a3.59,3.59,0,1,1-3.59-3.59h0a3.58,3.58,0,0,1,3.59,3.57Z"/><path class="cls-22" d="M134.71,103.72a3.59,3.59,0,1,1-3.59-3.59h0a3.58,3.58,0,0,1,3.59,3.57Z"/><g class="cls-29"><path class="cls-21" d="M125.75,30.53h.15a2.16,2.16,0,0,1,2.16,2.16V48.42a2.15,2.15,0,0,1-2.15,2.15h-.15a2.15,2.15,0,0,1-2.15-2.15h0V32.68A2.16,2.16,0,0,1,125.75,30.53Z"/></g><path class="cls-26" d="M113.74,79.84a6.23,6.23,0,1,0-6.23,6.23,6.23,6.23,0,0,0,6.23-6.23Z"/><path class="cls-21" d="M111,78.18a1.55,1.55,0,1,1-1.55-1.55h0A1.54,1.54,0,0,1,111,78.17Z"/><path class="cls-26" d="M150.85,79.84a6.23,6.23,0,1,0-6.23,6.23h0A6.23,6.23,0,0,0,150.85,79.84Z"/><path class="cls-21" d="M148.13,78.18a1.55,1.55,0,1,1-1.55-1.55,1.54,1.54,0,0,1,1.55,1.55Z"/><path class="cls-21" d="M38.53,68.46S36.69,51,35.37,41.32c-.86-6.3-.63-5.51-.63-5.51s-2.32,2.51-8.1,3.46-13.12,6.57-13.12,6.57l2.33,4,14.2,8.72Z"/><path class="cls-22" d="M15.92,53.29a8.37,8.37,0,1,1,8.47,8.27h-.1a8.32,8.32,0,0,1-8.37-8.27Z"/><path class="cls-2" d="M23,140.71s-.56,18-1.17,19.84-7.92.8-10.61.92-8.94,1.31-8.69-3.2S2.77,148,2.77,148l5.16-7.52,13-1.91Z"/><path class="cls-22" d="M23,140.71s-.56,18-1.17,19.84-7.92.8-10.61.92-8.94,1.31-8.69-3.2S2.77,148,2.77,148l5.16-7.52,13-1.91Z"/><g class="cls-30"><path class="cls-22" d="M15.82,136.09l-1.07,17.46s.23,8.5-3.65,12.63S-1.35,157-1.35,157l3-15.49Z"/></g><path class="cls-26" d="M14.9,79.84a6.23,6.23,0,1,0-6.23,6.23h0a6.21,6.21,0,0,0,6.22-6.22Z"/><path class="cls-21" d="M12.18,78.18a1.55,1.55,0,1,1-1.55-1.55h0a1.54,1.54,0,0,1,1.54,1.54Z"/><path class="cls-21" d="M417.85,221.18S419.68,203.76,421,194c.86-6.3.63-5.52.63-5.52S424,191,429.73,192s13.13,6.53,13.13,6.53l-2.33,4-14.21,8.72Z"/><path class="cls-22" d="M440.45,206a8.37,8.37,0,1,0-8.47,8.27h.1a8.31,8.31,0,0,0,8.37-8.25Z"/><path class="cls-21" d="M515.16,221.18S513.33,203.76,512,194c-.86-6.3-.63-5.52-.63-5.52s-2.32,2.52-8.09,3.47-13.13,6.53-13.13,6.53l2.33,4,14.2,8.72Z"/><path class="cls-22" d="M492.55,206a8.37,8.37,0,1,1,8.47,8.27h-.1a8.32,8.32,0,0,1-8.37-8.27Z"/><path class="cls-2" d="M433.47,293.42s.56,18.06,1.17,19.85,7.92.8,10.61.92,8.94,1.31,8.69-3.2-.24-10.25-.24-10.25l-5.16-7.52-13-1.91Z"/><path class="cls-22" d="M433.47,293.42s.56,18.06,1.17,19.85,7.92.8,10.61.92,8.94,1.31,8.69-3.2-.24-10.25-.24-10.25l-5.16-7.52-13-1.91Z"/><g class="cls-31"><path class="cls-22" d="M440.65,288.84l1.06,17.47s-.23,8.5,3.66,12.62,12.44-9.21,12.44-9.21l-3-15.49Z"/></g><path class="cls-2" d="M499.63,293.42s-.57,18.06-1.17,19.85-7.93.8-10.62.92-8.93,1.31-8.69-3.2.24-10.25.24-10.25l5.17-7.52,12.95-1.91Z"/><path class="cls-22" d="M499.63,293.42s-.57,18.06-1.17,19.85-7.93.8-10.62.92-8.93,1.31-8.69-3.2.24-10.25.24-10.25l5.17-7.52,12.95-1.91Z"/><g class="cls-32"><path class="cls-22" d="M492.45,288.84l-1.06,17.47s.22,8.5-3.66,12.62-12.45-9.21-12.45-9.21l3-15.49Z"/></g><path class="cls-21" d="M523.6,249.47a57.09,57.09,0,1,1-57.09-57.09h0a57.09,57.09,0,0,1,57.09,57.07Z"/><circle class="cls-22" cx="466.51" cy="239.22" r="46.84"/><path class="cls-21" d="M485.31,256.44c0,6.76-8.92,12.25-19.91,12.25s-19.91-5.49-19.91-12.25,8.91-12.26,19.91-12.26S485.31,249.67,485.31,256.44Z"/><path class="cls-22" d="M462.58,256.44a3.59,3.59,0,1,1-3.58-3.6,3.59,3.59,0,0,1,3.58,3.6Z"/><path class="cls-22" d="M475.39,256.44a3.59,3.59,0,1,1-3.59-3.6,3.59,3.59,0,0,1,3.59,3.6Z"/><g class="cls-33"><path class="cls-21" d="M466.44,183.25h.15a2.16,2.16,0,0,1,2.16,2.16h0v15.73a2.15,2.15,0,0,1-2.15,2.15h-.15a2.15,2.15,0,0,1-2.15-2.15V185.4A2.16,2.16,0,0,1,466.44,183.25Z"/></g><path class="cls-26" d="M454.43,232.57a6.24,6.24,0,1,0-6.25,6.23h0A6.25,6.25,0,0,0,454.43,232.57Z"/><path class="cls-21" d="M451.7,230.9a1.55,1.55,0,1,1-1.55-1.55h0a1.54,1.54,0,0,1,1.54,1.54Z"/><path class="cls-26" d="M491.54,232.57a6.24,6.24,0,1,0-6.25,6.23h0A6.24,6.24,0,0,0,491.54,232.57Z"/><path class="cls-21" d="M488.81,230.9a1.55,1.55,0,1,1-1.55-1.55h0a1.54,1.54,0,0,1,1.54,1.54Z"/><path class="cls-21" d="M475.29,72s1.83-17.42,3.16-27.13c.86-6.3.63-5.52.63-5.52s2.32,2.5,8.1,3.5,13.12,6.5,13.12,6.5l-2.33,4-14.2,8.72Z"/><path class="cls-22" d="M497.9,56.84a8.37,8.37,0,1,0-8.46,8.28h.09a8.32,8.32,0,0,0,8.37-8.27Z"/><path class="cls-21" d="M572.6,72s-1.83-17.42-3.16-27.15c-.86-6.3-.63-5.52-.63-5.52s-2.32,2.52-8.09,3.52-13.13,6.54-13.13,6.54l2.33,4,14.21,8.72Z"/><path class="cls-22" d="M550,56.84a8.37,8.37,0,1,1,8.46,8.28h-.09A8.31,8.31,0,0,1,550,56.87Z"/><path class="cls-2" d="M490.91,144.24s.56,18,1.17,19.84,7.92.8,10.61.92,8.94,1.31,8.7-3.2-.25-10.25-.25-10.25L506,144l-13-1.91Z"/><path class="cls-22" d="M490.91,144.24s.56,18,1.17,19.84,7.92.8,10.61.92,8.94,1.31,8.7-3.2-.25-10.25-.25-10.25L506,144l-13-1.91Z"/><g class="cls-34"><path class="cls-22" d="M498.09,139.62l1.06,17.46s-.23,8.51,3.66,12.63,12.44-9.22,12.44-9.22l-3-15.49Z"/></g><path class="cls-2" d="M557.07,144.24s-.57,18-1.17,19.84-7.93.8-10.62.92-8.93,1.31-8.69-3.2.25-10.25.25-10.25L542,144l13-1.91Z"/><path class="cls-22" d="M557.07,144.24s-.57,18-1.17,19.84-7.93.8-10.62.92-8.93,1.31-8.69-3.2.25-10.25.25-10.25L542,144l13-1.91Z"/><g class="cls-35"><path class="cls-22" d="M549.89,139.62l-1.06,17.46s.23,8.51-3.66,12.63-12.45-9.22-12.45-9.22l3-15.49Z"/></g><path class="cls-21" d="M581.05,100.29A57.1,57.1,0,1,1,523.94,43.2H524A57.09,57.09,0,0,1,581.05,100.29Z"/><circle class="cls-22" cx="523.95" cy="90.04" r="46.84" transform="translate(361.86 596.36) rotate(-82)"/><path class="cls-21" d="M542.75,107.25c0,6.77-8.92,12.25-19.91,12.25s-19.91-5.48-19.91-12.25S511.84,95,522.84,95,542.75,100.48,542.75,107.25Z"/><path class="cls-22" d="M520,107.25a3.59,3.59,0,1,1-3.59-3.59,3.59,3.59,0,0,1,3.59,3.59Z"/><path class="cls-22" d="M532.83,107.25a3.59,3.59,0,1,1-3.59-3.59,3.59,3.59,0,0,1,3.59,3.59Z"/><g class="cls-36"><path class="cls-21" d="M523.88,34.06H524a2.16,2.16,0,0,1,2.16,2.16V52A2.15,2.15,0,0,1,524,54.11h-.16A2.15,2.15,0,0,1,521.7,52h0V36.21a2.15,2.15,0,0,1,2.15-2.15Z"/></g><path class="cls-26" d="M511.87,83.38a6.23,6.23,0,1,0-6.23,6.23,6.23,6.23,0,0,0,6.23-6.23Z"/><path class="cls-21" d="M509.14,81.71a1.55,1.55,0,1,1-1.55-1.55h0a1.54,1.54,0,0,1,1.54,1.54Z"/><path class="cls-26" d="M549,83.38a6.23,6.23,0,1,0-6.23,6.23h0A6.23,6.23,0,0,0,549,83.38Z"/><path class="cls-21" d="M546.25,81.71a1.54,1.54,0,1,1-1.54-1.55,1.54,1.54,0,0,1,1.54,1.55Z"/><path class="cls-2" d="M359.33,145.43s.58,18.67,1.21,20.52,8.19.83,11,1,9.24,1.35,9-3.31-.26-10.61-.26-10.61l-5.34-7.77-13.4-2Z"/><g class="cls-37"><path class="cls-3" d="M366.75,140.65l1.1,18.07s-.23,8.79,3.79,13.05,12.86-9.53,12.86-9.53l-3.11-16Z"/></g><path class="cls-2" d="M427.42,145.43s-.58,18.67-1.21,20.52-8.19.83-11,1-9.25,1.35-9-3.31.26-10.61.26-10.61l5.34-7.77,13.4-2Z"/><g class="cls-38"><path class="cls-3" d="M420,140.65l-1.09,18.07s.23,8.79-3.79,13.05-12.87-9.53-12.87-9.53l3.11-16Z"/></g><path class="cls-3" d="M450.4,100c0,32.61-25.11,59.05-56.09,59.05S338.22,132.58,338.22,100s25.11-59,56.09-59S450.4,67.36,450.4,100Z"/><path class="cls-2" d="M440.33,89.37c0,26.75-20.6,48.45-46,48.45s-46-21.7-46-48.45,20.6-48.45,46-48.45S440.33,62.61,440.33,89.37Z"/><path class="cls-6" d="M413.76,101.84c0,7-9.22,12.67-20.6,12.67s-20.59-5.67-20.59-12.67,9.22-12.68,20.59-12.68S413.76,94.84,413.76,101.84Z"/><path class="cls-7" d="M390.25,101.84a3.71,3.71,0,1,1-3.71-3.72,3.71,3.71,0,0,1,3.71,3.72Z"/><path class="cls-7" d="M403.5,101.84a3.72,3.72,0,1,1-3.72-3.72h0a3.71,3.71,0,0,1,3.71,3.71Z"/><path class="cls-10" d="M381.81,82.49a6.45,6.45,0,1,0-6.46,6.44h0a6.44,6.44,0,0,0,6.44-6.44Z"/><path class="cls-11" d="M379,80.76a1.6,1.6,0,1,1-1.6-1.6h0A1.59,1.59,0,0,1,379,80.75Z"/><path class="cls-10" d="M420.19,82.49a6.44,6.44,0,1,0-6.44,6.44h0A6.45,6.45,0,0,0,420.19,82.49Z"/><path class="cls-11" d="M417.38,80.76a1.6,1.6,0,1,1-1.6-1.6,1.59,1.59,0,0,1,1.6,1.58Z"/><path class="cls-39" d="M394.38,126.46c-9.75-.1-14.1-3.48-14.1,5.5,2.8,2.43,6.68,4.92,13.74,5.06h.73c7.06-.14,10.94-2.63,13.74-5.06,0-9-4.35-5.6-14.11-5.5"/><path class="cls-39" d="M393.28,108.14c-1.41-2.67-14.81-1.21-22,2.29-6.67,3.24-9.35,11-5.43,18,.67-17.11,14.13-12.57,21.58-13.88,5-.89,5.88-6.38,5.88-6.38"/><path class="cls-39" d="M417.38,110.43c-7.22-3.5-20.62-5-22-2.29,0,0,.86,5.49,5.88,6.38,7.45,1.31,20.92-3.23,21.59,13.88,3.91-7,1.24-14.73-5.43-18"/><path class="cls-39" d="M442.66,82.84c-3.29,3.72-6.89,5.62-9,10.34-2.12-1.79-1.24-5.42-1.61-7.87A36.83,36.83,0,0,0,429,74.84c-1.5-3.22-4.09-7.42-7.94-8.26-4.21-.92-9.32,1.78-13.31,3-4.57,1.4-7.78,2.74-13.62,2.27-2.89-.24-5.94-1.86-8.36-3.48-1.89-1.26-7.71-1-9-1.42-8.21-2.52-6.32-18.06-1.59-21.85,12.94-10.73,35.88-6.49,46.29-21.32,3.47-5.05,8.84-15.15,3.79-20.83,2.84,1.9,7.83,4.66,9.72,7.5a24.45,24.45,0,0,1,4.48,10.17c.72,5.86-2.21,14.52-5.68,18.94,1.58,0,6-2.53,6-4.42a17.68,17.68,0,0,0,3.16,12c2.52,3.16,5,7.26,5.68,11.36.94,8.84.41,17.06-6,24.3Z"/><path class="cls-39" d="M356.33,97.53a4.41,4.41,0,0,0-.06-.6c-.33-3.45-1.5-20.67,7-24.64,9.47-4.41,18.94-4.41,19.25-6.62S397,45.84,416,37.58s12.67-27.5,13-30,7.85,9.82-20.24,17.92c-16.85,4.87-36-8.84-48.82-1.27-10.48,6.21-13.12,13.31-13.5,24-.16,4.42-3.29,3-2.37-5.36.16-1.42-6,7.1-2.52,15,3,6.91-2.84,12.95,2.21,21s9.41,15.67,10.24,22,2.34-3.53,2.34-3.53"/><path class="cls-2" d="M434.78,70.93h0c.26-2.63.18-5.26.24-7.9.07-3.68.14-7.37.13-11.06v-.13c0-4.56.09-4,.09-4s-1.89,1.57-6.09,1.69a14,14,0,0,0-5.72,1.65,18.79,18.79,0,0,0-4.51,2.66.4.4,0,0,0-.16.22.5.5,0,0,0,.13.37,18.7,18.7,0,0,0,2.25,1.92c.89.8,1.77,1.63,2.69,2.39,1.94,1.59,3.93,3.11,5.87,4.69l.08.07L432.05,67C432.77,68.15,433.09,70.84,434.78,70.93Z"/><path class="cls-3" d="M430,63.84a5.86,5.86,0,0,0,2.13-3.79A6,6,0,0,0,421,56.31l8.82,7.19Z"/><path class="cls-2" d="M352.85,75.34s-.37-13.12-.35-20.47c0-4.77-.09-4.17-.09-4.17s2,1.64,6.37,1.77S369.18,56,369.18,56l-1.34,3.19-9.68,7.88Z"/><path class="cls-3" d="M357.93,67.45a6.18,6.18,0,0,1,3.16-10.94,6.25,6.25,0,0,1,6.28,3.08l-9.21,7.5Z"/><path class="cls-2" d="M212.93,70.93s-.51-18.11-.49-28.26c0-6.57-.11-5.74-.11-5.74s2.72,2.26,8.78,2.44,14.35,4.89,14.35,4.89l-1.84,4.4L220.25,59.55Z"/><path class="cls-3" d="M234,52.27a8.66,8.66,0,1,0-7.55,9.64h.11A8.6,8.6,0,0,0,234,52.28Z"/><path class="cls-2" d="M230.24,141s.58,18.67,1.21,20.52,8.2.83,11,1,9.24,1.35,9-3.32-.26-10.6-.26-10.6l-5.36-7.78-13.4-2Z"/><g class="cls-40"><path class="cls-3" d="M237.67,136.24l1.1,18.06s-.24,8.8,3.78,13.06,12.87-9.52,12.87-9.52l-3.12-16Z"/></g><path class="cls-2" d="M293,141s-.58,18.67-1.21,20.52-8.19.83-11,1-9.25,1.35-9-3.32.26-10.6.26-10.6l5.34-7.77,13.4-2Z"/><g class="cls-41"><path class="cls-3" d="M285.62,136.24l-1.1,18.06s.24,8.8-3.78,13.06-12.87-9.52-12.87-9.52l3.13-16Z"/></g><path class="cls-3" d="M318.6,95.56c0,32.61-25.08,59-56,59s-56-26.43-56-59,25.08-59,56-59S318.6,62.94,318.6,95.56Z"/><g class="cls-42"><rect class="cls-9" x="260.28" y="27.06" width="4.61" height="20.74" rx="2.23" ry="2.23"/></g><path class="cls-2" d="M312.76,70.93s.51-18.11.48-28.26c0-6.57.12-5.74.12-5.74s-2.72,2.26-8.78,2.44-14.35,4.89-14.35,4.89l1.84,4.4,13.37,10.89Z"/><path class="cls-3" d="M291.67,52.27a8.66,8.66,0,1,1,7.55,9.64h-.11a8.6,8.6,0,0,1-7.44-9.62Z"/><path class="cls-43" d="M289.55,40.28c-22.28-32-20.77-18.45-28.18-18.61-7.84-.16-6.86-13-28.17,18.61-7.51,11.14,12.62,17.13,28.17,17.13S297.21,51.28,289.55,40.28Z"/><path class="cls-44" d="M302.78,48.24c0-3.75-18.48-13.83-41.28-13.83s-41.28,10.08-41.28,13.83S238.7,66.09,261.5,66.09,302.78,52,302.78,48.24Z"/><path class="cls-2" d="M309,85c0,26.75-20.76,48.44-46.38,48.44S216.2,111.71,216.2,85,237,36.51,262.58,36.51,309,58.2,309,85Z"/><path class="cls-6" d="M282,102.76c0,7-9.22,12.67-20.59,12.67s-20.6-5.67-20.6-12.67,9.23-12.67,20.6-12.67S282,95.76,282,102.76Z"/><path class="cls-7" d="M258.52,102.76a3.72,3.72,0,1,1-3.73-3.71h0A3.72,3.72,0,0,1,258.52,102.76Z"/><path class="cls-7" d="M271.77,102.76A3.72,3.72,0,1,1,268,99.05h0A3.72,3.72,0,0,1,271.77,102.76Z"/><path class="cls-10" d="M250.08,78.07a6.45,6.45,0,1,0-6.45,6.45h0a6.44,6.44,0,0,0,6.45-6.43Z"/><path class="cls-11" d="M247.26,76.34a1.6,1.6,0,1,1-1.61-1.59h0A1.59,1.59,0,0,1,247.26,76.34Z"/><path class="cls-10" d="M288.46,78.07A6.45,6.45,0,1,0,282,84.52a6.45,6.45,0,0,0,6.46-6.45Z"/><path class="cls-11" d="M285.65,76.34A1.6,1.6,0,1,1,284,74.75h0A1.6,1.6,0,0,1,285.65,76.34Z"/><path class="cls-10" d="M262.58,119.64c2.46,4.27,8.32,7.88,16.09,6.14,2.11,2.52,2.67,7.28,2.15,11.26-.48,2.92-1.62,3.5-1.62,3.5a2.49,2.49,0,0,0-.71-1.79,14.68,14.68,0,0,1-6.62,12c.8-1.3.85-1.68.45-2.06-1.05,2.14-1.25,2.41-3.66,4.37-1.58,1.29-2.36,1.75-2.71,3s1.19,1.69,1.19,1.69c-10.07-.34-16.53-6.83-16.72-9-.52.15-.28.72-.16,1.66-4-3.7-4.64-6-5-12.12a2.84,2.84,0,0,0-.6,1.88c-3.51-4.66-1.8-11.71-.48-14.57,9.28,1.73,13.56-2.17,16.11-6,.4-.7.79-.81,1.15-.81s.74.29,1.13.81Z"/><path class="cls-10" d="M282.36,113.69c-.26-2.16-1.64-4.85-4.33-4,2.52,1.42,3.54,5.17-1,6.58-7.54.19-8.38-11.56-15.68-5.74h0c-7.3-5.82-8.14,5.93-15.68,5.74-4.52-1.41-3.5-5.16-1-6.58-2.68-.86-4.07,1.83-4.33,4a11.92,11.92,0,0,0,.63,6.09c2.27,5.25,7.09,6.68,11.69,4.68a20,20,0,0,0,5.11-3.09c1.8-1.63,2.81-3.45,3.59-3.87.78.42,1.79,2.24,3.59,3.87a20,20,0,0,0,5.11,3.09c4.59,2,9.42.57,11.69-4.68a11.92,11.92,0,0,0,.63-6.09Z"/><path class="cls-44" d="M229.51,50.63s40.58-10.34,62.68-3.53-22.07-11.47-22.07-11.47l-26.49,1.76Z"/><path class="cls-2" d="M376.79,222.76s.51-18.11.48-28.25c0-6.58.12-5.75.12-5.75s-2.72,2.27-8.78,2.45-14.35,4.89-14.35,4.89l1.84,4.4,13.37,10.88Z"/><path class="cls-3" d="M355.7,204.11a8.65,8.65,0,1,1,7.53,9.64h-.09a8.6,8.6,0,0,1-7.44-9.62Z"/><path class="cls-2" d="M289.32,222.76s-.52-18.11-.49-28.25c0-6.58-.12-5.75-.12-5.75s2.73,2.27,8.78,2.45,14.36,4.89,14.36,4.89L310,200.5l-13.36,10.88Z"/><path class="cls-3" d="M310.41,204.11a8.66,8.66,0,1,0-7.54,9.65l.13,0A8.62,8.62,0,0,0,310.41,204.11Z"/><path class="cls-2" d="M300.45,292.84s.58,18.67,1.21,20.53,8.19.82,11,.95,9.24,1.36,9-3.31-.26-10.61-.26-10.61l-5.4-7.76-13.39-2Z"/><g class="cls-45"><path class="cls-3" d="M307.88,288.07,309,306.14s-.23,8.79,3.79,13.06,12.87-9.54,12.87-9.54l-3.12-16Z"/></g><path class="cls-2" d="M363.25,292.84s-.59,18.67-1.21,20.53-8.19.82-11,.95-9.24,1.36-9-3.31.25-10.61.25-10.61l5.35-7.77,13.39-2Z"/><g class="cls-46"><path class="cls-3" d="M355.83,288.07l-1.1,18.07s.24,8.79-3.79,13.06-12.87-9.54-12.87-9.54l3.12-16Z"/></g><path class="cls-3" d="M383.1,247.39c0,32.62-22.52,59.05-50.31,59.05S282.47,280,282.47,247.39s22.53-59,50.32-59S383.1,214.78,383.1,247.39Z"/><path class="cls-2" d="M374.07,236.84c0,26.76-18.48,48.45-41.28,48.45s-41.28-21.74-41.28-48.45S310,188.4,332.79,188.4,374.07,210,374.07,236.84Z"/><path class="cls-6" d="M352.23,254.6c0,7-9.22,12.67-20.6,12.67S311,261.59,311,254.6s9.22-12.68,20.59-12.68S352.23,247.59,352.23,254.6Z"/><path class="cls-7" d="M328.72,254.6a3.73,3.73,0,1,1,0-.06Z"/><path class="cls-7" d="M342,254.6a3.71,3.71,0,1,1-3.71-3.72A3.71,3.71,0,0,1,342,254.6Z"/><g class="cls-47"><rect class="cls-9" x="330.48" y="178.9" width="4.61" height="20.74" rx="2.23" ry="2.23"/></g><path class="cls-10" d="M320.29,229.91a6.45,6.45,0,1,0-6.46,6.44h0A6.45,6.45,0,0,0,320.29,229.91Z"/><path class="cls-11" d="M317.47,228.18a1.6,1.6,0,1,1-1.6-1.6,1.6,1.6,0,0,1,1.6,1.6Z"/><path class="cls-10" d="M358.67,229.91a6.45,6.45,0,1,0-6.46,6.44h0a6.44,6.44,0,0,0,6.44-6.44Z"/><path class="cls-11" d="M355.85,228.18a1.6,1.6,0,1,1-1.6-1.6h0A1.6,1.6,0,0,1,355.85,228.18Z"/><path class="cls-48" d="M314.86,266.47c-8,6.47-18-1.14-17,1.57,1.08,3.12,9.52,7.1,22.95,3.81,6.94-1.7,10.47-4.07,9.31-6.39-2.74-5.47-7.76-5-15.22,1"/><path class="cls-48" d="M347.74,266.47c-7.45-6-12.48-6.48-15.21-1-1.16,2.32,2.36,4.69,9.31,6.39,13.43,3.29,21.86-.69,23-3.81.94-2.71-9,4.9-17-1.57"/><path class="cls-7" d="M321.44,290.66c.5.5,6.8-1.21,7.29-1.7s.55-5.54,0-6.09-6.82-2.17-7.29-1.7-.52,9,0,9.49Zm22-9.49c-.47-.47-6.78,1.19-7.29,1.7s-.52,5.56,0,6.09,6.79,2.2,7.29,1.7.56-8.92,0-9.49Zm-8.21,4.89s.51,2.39,0,2.9-2.83,0-2.83,0-2.28.49-2.76,0,0-3,0-3-.55-2.57,0-3.12,2.9,0,2.9,0,2.21-.47,2.69,0,0,3.19,0,3.19Z"/><ellipse class="cls-10" cx="333.27" cy="273.12" rx="2.21" ry="1.1" transform="translate(-26.23 510.67) rotate(-72.79)"/><path class="cls-44" d="M362.21,280.41l12.23,3a88,88,0,0,1-4.45,9.23c-2.19,3.7-9.48,5.89-12.72.06s-5.11-7.8-6.57-9.29-4.78-4.85-6.56-5.88A40.12,40.12,0,0,0,333.69,274a.65.65,0,0,1-.91-.11.67.67,0,0,1-.14-.36,2.38,2.38,0,0,1,.56-1.53c.24-.31.73-.22,1,.23,3.61.65,10.09,2.11,13,3.68a48.42,48.42,0,0,1,9.8,7.78c2.92,3,5,3.2,5.07,2s.16-5.31.16-5.31Z"/><path class="cls-49" d="M332.64,273.57a2.38,2.38,0,0,1,.56-1.53c.24-.31.73-.22,1,.23,3.61.65,10.09,2.11,13,3.68a43.06,43.06,0,0,1,7.2,5.32l-2.75,3.14-.93-1c-1.45-1.49-4.78-4.85-6.56-5.88A40.12,40.12,0,0,0,333.71,274a.65.65,0,0,1-.91-.11.67.67,0,0,1-.14-.36Z"/><path class="cls-50" d="M351.89,279.18c.84.66,1.67,1.37,2.49,2.09l-2.76,3.14c-.32-.36-.63-.68-.92-1s-.82-.84-1.35-1.36l2.54-2.9Z"/><path class="cls-11" d="M369.41,288.63c1.07-1.94,1.49-3.76,2-3.49s0,2.05-1.07,4-2.33,3.3-2.81,3,.83-1.59,1.91-3.53Z"/><path class="cls-21" d="M0,40.57V152.94A57.08,57.08,0,0,0,47,96.76v0A57.08,57.08,0,0,0,0,40.57Z"/><path class="cls-22" d="M36.71,85.2A46.86,46.86,0,0,0,0,40.76v91.48A46.86,46.86,0,0,0,36.71,85.2Z"/><path class="cls-21" d="M0,93.59v20.25c5.24-2.21,8.69-5.91,8.69-10.12S5.24,95.8,0,93.59Z"/><rect class="cls-51" x="-0.01" width="174.79" height="320.8"/><path class="cls-21" d="M562.2,209.37l14.2-8.72,2.33-4s-7.34-5.62-13.12-6.57-8.1-3.46-8.1-3.46.23-.79-.63,5.51c-1.32,9.72-3.16,27.14-3.16,27.14Z"/><path class="cls-22" d="M576.33,204.1a8.33,8.33,0,0,1-8.37,8.27h-.1a8.37,8.37,0,1,1,8.47-8.27Z"/><path class="cls-2" d="M571.32,289.4l13,1.91,5.16,7.52s0,5.74.24,10.25-6,3.32-8.69,3.2-10,.92-10.61-.92-1.17-19.84-1.17-19.84Z"/><path class="cls-22" d="M571.32,289.4l13,1.91,5.16,7.52s0,5.74.24,10.25-6,3.32-8.69,3.2-10,.92-10.61-.92-1.17-19.84-1.17-19.84Z"/><g class="cls-52"><path class="cls-22" d="M590.6,292.28l3,15.49S585,321.12,581.15,317s-3.65-12.63-3.65-12.63l-1.07-17.46Z"/></g><path class="cls-21" d="M592.26,191.37V303.74a57.08,57.08,0,0,1-47-56.17v0A57.1,57.1,0,0,1,592.26,191.37Z"/><path class="cls-22" d="M555.55,236a46.85,46.85,0,0,1,36.71-44.44V283A46.83,46.83,0,0,1,555.55,236Z"/><path class="cls-21" d="M592.26,244.4v20.24c-5.24-2.2-8.69-5.91-8.69-10.11S587,246.61,592.26,244.4Z"/><path class="cls-26" d="M577.35,230.66a6.23,6.23,0,0,0,6.22,6.22h0a6.23,6.23,0,1,0-6.23-6.23Z"/><path class="cls-21" d="M580.07,229a1.54,1.54,0,0,1,1.54-1.54h0a1.55,1.55,0,1,1-1.55,1.55Z"/><rect class="cls-53" x="417.71" width="174.55" height="320.8"/></svg>