<svg xmlns="http://www.w3.org/2000/svg" viewBox="0 0 48 48"><defs><style>.cls-1{fill:#61c6e6;}</style></defs><title>Asset 8</title><g id="Layer_2" data-name="Layer 2"><g id="icons"><path class="cls-1" d="M11,28.41a1,1,0,0,1-.44-.11l-7.8-3.89A5,5,0,0,1,0,19.93v-4a5,5,0,0,1,2.76-4.47L24.32.63a6,6,0,0,1,5.36,0L45.87,8.72a3,3,0,0,1,0,5.37L24.32,24.87a3,3,0,0,1-2.63,0L5,17v3a1,1,0,0,1-2,0V17a2,2,0,0,1,2.86-1.81l16.69,7.91a1,1,0,0,0,.87,0L45,12.3a1,1,0,0,0,0-1.79L28.79,2.42a4,4,0,0,0-3.58,0L3.66,13.2A3,3,0,0,0,2,15.88v4a3,3,0,0,0,1.66,2.69l7.79,3.89a1,1,0,0,1-.45,1.9Z"/><path class="cls-1" d="M23,34.17a3,3,0,0,1-1.34-.32l-5.1-2.55A1,1,0,0,1,16.11,30a1,1,0,0,1,1.34-.45l5.1,2.55a1,1,0,0,0,.9,0l4-2a1,1,0,0,1,.9,1.78l-4,2A3,3,0,0,1,23,34.17Z"/><path class="cls-1" d="M36.68,27.57a1,1,0,0,1-.45-1.9l10.32-5.16a1,1,0,0,1,1.34.45,1,1,0,0,1-.44,1.34L37.13,27.46A1.06,1.06,0,0,1,36.68,27.57Z"/><path class="cls-1" d="M45,20a1,1,0,0,1-1-1V14a1,1,0,0,1,2,0v5A1,1,0,0,1,45,20Z"/><path class="cls-1" d="M17,37.23a1,1,0,0,1-.76-.36l-2.64-3.1-2.44.39a1,1,0,0,1-.81-.23,1,1,0,0,1-.35-.76v-10a1,1,0,0,1,1.45-.89l6,3.06a1,1,0,0,1,.55.89v10a1,1,0,0,1-.65.94A1.07,1.07,0,0,1,17,37.23ZM14,31.7a1,1,0,0,1,.76.35L16,33.51V26.84l-4-2V32l1.84-.29Z"/><path class="cls-1" d="M40.33,48a2.14,2.14,0,0,1-.5-.06,2,2,0,0,1-1.25-.89l-3.1-5.47-2.93,2.83a1.57,1.57,0,0,1-1.69.39A1.46,1.46,0,0,1,30,43.4v-19L45.36,35.6a1.74,1.74,0,0,1,.51,2A1.78,1.78,0,0,1,44.26,39H41.31L44,43.71a2.2,2.2,0,0,1-.85,2.93l-1.56,1A2.39,2.39,0,0,1,40.33,48Zm-4.39-9.65L40.3,46s.11,0,.24-.1l1.56-1a.34.34,0,0,0,.18-.26L37.85,37h6L32,28.37V42.16Z"/></g></g></svg>