<svg xmlns="http://www.w3.org/2000/svg" fill="#04d138" width="17" height="17" viewBox="0 0 17.2 17.2"><path d="M8.6 0C3.9 0 0 3.9 0 8.6c0 4.7 3.9 8.6 8.6 8.6 4.8 0 8.6-3.9 8.6-8.6C17.2 3.9 13.4 0 8.6 0zM11.7 7.2l-1.5-0.2c0.1-0.5 0-0.9-0.2-1.2 -0.2-0.3-0.5-0.5-0.9-0.6C8.8 5.1 8.5 5.2 8.3 5.4c-0.2 0.2-0.4 0.5-0.4 0.8 -0.1 0.3 0 0.6 0.2 0.9 0.2 0.2 0.5 0.5 1.1 0.8 0.8 0.4 1.4 0.9 1.7 1.3 0.4 0.5 0.5 1 0.4 1.7 -0.1 0.7-0.4 1.2-0.9 1.6 -0.5 0.3-1.1 0.5-1.8 0.5l-0.2 1.2 -1-0.1 0.2-1.2c-0.7-0.2-1.3-0.5-1.6-1 -0.4-0.5-0.5-1.2-0.4-2l0 0 1.4 0.2c-0.1 0.6 0 1 0.2 1.3 0.2 0.3 0.6 0.5 1 0.5 0.4 0.1 0.8 0 1.1-0.2 0.3-0.2 0.4-0.5 0.5-0.8 0-0.3 0-0.6-0.2-0.9 -0.2-0.3-0.5-0.5-1-0.8C7.7 8.7 7.1 8.3 6.8 7.8 6.4 7.3 6.3 6.7 6.4 6c0.1-0.7 0.4-1.2 0.8-1.5 0.5-0.4 1.1-0.5 1.8-0.5l0.2-1.3 1 0.1L9.9 4.1c0.7 0.2 1.2 0.6 1.5 1.1C11.7 5.8 11.8 6.4 11.7 7.2z"/></svg>
