<?xml version="1.0" encoding="utf-8"?>
<!-- Generator: Adobe Illustrator 16.0.0, SVG Export Plug-In . SVG Version: 6.00 Build 0)  -->
<!DOCTYPE svg PUBLIC "-//W3C//DTD SVG 1.1//EN" "http://www.w3.org/Graphics/SVG/1.1/DTD/svg11.dtd">
<svg version="1.1" id="Layer_1" xmlns="http://www.w3.org/2000/svg" xmlns:xlink="http://www.w3.org/1999/xlink" x="0px" y="0px"
	 width="300px" height="300px" viewBox="0 0 300 300" enable-background="new 0 0 300 300" xml:space="preserve">
<g>
	<radialGradient id="SVGID_1_" cx="150" cy="150" r="150" gradientUnits="userSpaceOnUse">
		<stop  offset="0" style="stop-color:#FFC000"/>
		<stop  offset="1" style="stop-color:#FFC000;stop-opacity:0"/>
	</radialGradient>
	<circle fill="url(#SVGID_1_)" cx="150" cy="150" r="150"/>
	<circle fill="#FFC000" cx="149" cy="150" r="102"/>
	<g>
		<circle fill="#FFFFFF" cx="120.792" cy="117.915" r="16.598"/>
		<circle fill="#FFFFFF" cx="179.334" cy="117.915" r="16.598"/>
		<g>
			<path fill="#FFFFFF" d="M99.747,153.976c-0.167-3.846,2.846-6.976,6.695-6.976h86.115c3.85,0,6.862,3.13,6.695,6.976
				c0,0-2.388,54.725-49.753,54.725S99.747,153.976,99.747,153.976z"/>
		</g>
	</g>
</g>
<g>
	<radialGradient id="SVGID_2_" cx="-188" cy="150" r="150" gradientUnits="userSpaceOnUse">
		<stop  offset="0" style="stop-color:#3FA9F5"/>
		<stop  offset="1" style="stop-color:#3FA9F5;stop-opacity:0"/>
	</radialGradient>
	<circle fill="url(#SVGID_2_)" cx="-188" cy="150" r="150"/>
	<circle fill="#558ED5" cx="-189" cy="150" r="102"/>
	<g>
		<polygon fill="#FFFFFF" points="-123.925,113 -254,113 -254,113.62 -189.465,148.089 		"/>
		<polygon fill="#FFFFFF" points="-124,186 -124,116 -123.925,116 -189.465,150.958 -254,116.358 -254,186 		"/>
	</g>
</g>
<g>
	<radialGradient id="SVGID_3_" cx="-527" cy="150" r="150" gradientUnits="userSpaceOnUse">
		<stop  offset="0" style="stop-color:#04D138"/>
		<stop  offset="1" style="stop-color:#04D138;stop-opacity:0"/>
	</radialGradient>
	<circle fill="url(#SVGID_3_)" cx="-527" cy="150" r="150"/>
	<circle fill="#04D138" cx="-527" cy="150" r="102"/>
	<g>
		<path fill-rule="evenodd" clip-rule="evenodd" fill="#FFFFFF" d="M-541.855,197.449c24.242-24.109,48.63-48.365,72.803-72.407
			c-4.459-4.668-9.573-10.024-16.667-17.45c-18.479,19.499-36.601,38.619-56.252,59.355c-9.462-10.554-17.729-19.778-26.323-29.366
			c-6.274,6.262-11.684,11.659-16.652,16.617C-569.97,169.232-555.396,183.858-541.855,197.449z"/>
		<path fill-rule="evenodd" clip-rule="evenodd" fill="#FFFFFF" d="M-541.855,197.449c-13.541-13.591-28.114-28.217-43.092-43.251
			c4.969-4.958,10.378-10.355,16.652-16.617c8.594,9.588,16.861,18.813,26.323,29.366c19.651-20.736,37.772-39.856,56.252-59.355
			c7.094,7.426,12.208,12.782,16.667,17.45C-493.226,149.084-517.613,173.34-541.855,197.449z"/>
	</g>
</g>
<circle fill="#E2E2E2" cx="-584.947" cy="66.056" r="18.056"/>
<g>
	<path fill="#6D6D6D" d="M-582.407,56.946v18.22h-3.915V61.37c-0.216,0.191-0.471,0.371-0.765,0.541s-0.607,0.323-0.938,0.459
		c-0.332,0.137-0.675,0.253-1.031,0.348c-0.356,0.095-0.708,0.164-1.057,0.205v-3.306c1.019-0.298,1.98-0.68,2.883-1.144
		c0.903-0.464,1.719-0.974,2.449-1.529H-582.407z"/>
</g>
<circle fill="#E2E2E2" cx="-247.947" cy="66.056" r="18.056"/>
<g>
	<path fill="#6D6D6D" d="M-249.969,71.183h7.556v3.256h-11.856v-1.342c0-0.911,0.153-1.729,0.459-2.455s0.692-1.375,1.156-1.951
		c0.464-0.576,0.971-1.085,1.522-1.529c0.551-0.443,1.075-0.843,1.572-1.199c0.522-0.373,0.979-0.729,1.373-1.069
		s0.725-0.678,0.994-1.013c0.27-0.335,0.47-0.675,0.603-1.019c0.132-0.344,0.199-0.71,0.199-1.1c0-0.762-0.215-1.338-0.646-1.728
		c-0.431-0.389-1.09-0.584-1.976-0.584c-1.533,0-3,0.609-4.4,1.827v-3.455c1.549-1.002,3.298-1.504,5.245-1.504
		c0.903,0,1.713,0.118,2.43,0.354c0.716,0.236,1.323,0.574,1.821,1.013c0.497,0.439,0.876,0.971,1.137,1.597
		c0.261,0.626,0.391,1.324,0.391,2.094c0,0.82-0.126,1.55-0.379,2.188c-0.253,0.638-0.588,1.218-1.007,1.74s-0.901,1-1.448,1.435
		c-0.547,0.435-1.115,0.856-1.703,1.262c-0.398,0.282-0.781,0.562-1.15,0.839c-0.369,0.278-0.694,0.551-0.976,0.82
		c-0.282,0.27-0.505,0.533-0.671,0.789C-249.887,70.707-249.969,70.951-249.969,71.183z"/>
</g>
<circle fill="#E2E2E2" cx="89.053" cy="66.056" r="18.057"/>
<g>
	<path fill="#6D6D6D" d="M83.373,73.855v-3.418c1.193,0.87,2.586,1.305,4.176,1.305c1.003,0,1.784-0.215,2.344-0.646
		c0.559-0.431,0.839-1.032,0.839-1.802c0-0.795-0.347-1.408-1.038-1.839c-0.691-0.431-1.643-0.646-2.852-0.646h-1.654V63.8h1.529
		c2.32,0,3.48-0.771,3.48-2.312c0-1.45-0.891-2.175-2.672-2.175c-1.193,0-2.354,0.385-3.48,1.156v-3.207
		c1.251-0.629,2.709-0.944,4.375-0.944c1.822,0,3.241,0.41,4.256,1.23c1.016,0.82,1.523,1.885,1.523,3.194
		c0,2.329-1.182,3.787-3.543,4.375v0.062c1.26,0.158,2.254,0.615,2.983,1.374c0.729,0.758,1.094,1.688,1.094,2.79
		c0,1.666-0.609,2.983-1.827,3.952c-1.218,0.97-2.9,1.454-5.046,1.454C86.021,74.75,84.525,74.451,83.373,73.855z"/>
</g>
</svg>
