<?xml version="1.0" encoding="utf-8"?>
<!-- Generator: Adobe Illustrator 16.0.0, SVG Export Plug-In . SVG Version: 6.00 Build 0)  -->
<!DOCTYPE svg PUBLIC "-//W3C//DTD SVG 1.1//EN" "http://www.w3.org/Graphics/SVG/1.1/DTD/svg11.dtd">
<svg version="1.1" id="Layer_1" xmlns="http://www.w3.org/2000/svg" xmlns:xlink="http://www.w3.org/1999/xlink" x="0px" y="0px"
	 width="17.975px" height="14.193px" viewBox="0 0 17.975 14.193" enable-background="new 0 0 17.975 14.193" xml:space="preserve">
<path fill-rule="evenodd" clip-rule="evenodd" fill="#002060" d="M1.287,10.87c0.243,0.282,0.508,0.543,0.81,0.759
	c0.478,0.342,0.753,0.774,0.726,1.381c-0.013,0.298,0.021,0.598,0.021,0.897c-0.001,0.194,0.068,0.282,0.271,0.28
	C3.558,14.18,4,14.184,4.442,14.193c0.215,0.005,1.147-0.092,1.16-0.302c0.068-1.149,0.163-1.23,1.326-1.232
	c0.514,0,0.169-0.007,0.684-0.009c0.634,0.004,0.41,0.009,1.044,0.013c0.578,0.007,0.887,0.309,0.891,0.889
	c0.004,0.684,0.804,0.633,1.505,0.633c0.3,0,0.6-0.009,0.897,0.003c0.238,0.009,0.375-0.068,0.349-0.327
	c-0.037-0.346,0.079-0.659,0.214-0.968c0.231-0.317,0.545-0.51,0.904-0.668c0.979-0.428,1.788-1.092,2.28-2.038
	c0.454-0.869,1.074-1.341,2.063-1.295c0.225,0.026,0.211-0.132,0.214-0.274c0.004-0.402,0.002-2.057,0.002-2.482
	c0-0.2-0.053-0.33-0.289-0.28c-0.227-0.013-0.461,0.008-0.679-0.043C16.573,5.71,16.208,5.479,16,5.068
	c-0.471-0.93-2.056-2.307-2.076-2.336c0.005-0.837,0.009-1.674,0.014-2.511c0-0.09,0.021-0.207-0.135-0.194
	C13.73,0.018,13.657,0.009,13.584,0c-0.144,0.024-0.287,0.048-0.431,0.072c-0.889,0.265-1.672,0.721-2.11,1.552
	c-0.24,0.449-0.525,0.521-0.944,0.45C8.681,2.073,7.264,2.072,5.847,2.071c0-0.048-1.313,0.067-1.448,0.086
	c-0.57,0.078-1.133,0.229-1.615,0.553C2.202,3.014,1.605,3.543,1.171,4.033C0.76,4.498,0.46,5.036,0.268,5.611
	C-0.321,7.365,0.081,9.46,1.287,10.87z"/>
<circle fill-rule="evenodd" clip-rule="evenodd" fill="#FFFFFF" cx="13.115" cy="5.721" r="0.792"/>
</svg>