<svg version="1.1" id="Layer_1" xmlns="http://www.w3.org/2000/svg" xmlns:xlink="http://www.w3.org/1999/xlink" x="0px" y="0px"
	 width="18.185px" height="14.617px" viewBox="0 0 18.185 14.617" enable-background="new 0 0 18.185 14.617" xml:space="preserve">
<g>
	<g>
		<path fill="#002060" d="M4.793,14.617c-0.412-0.006-0.785-0.012-1.25-0.006l0,0c-0.317,0-0.512-0.13-0.62-0.236
			C2.765,14.216,2.686,14,2.687,13.734c0-0.112-0.006-0.222-0.01-0.334c-0.009-0.18-0.016-0.356-0.009-0.534
			c0.015-0.327-0.111-0.555-0.431-0.782c-0.303-0.218-0.589-0.483-0.874-0.814C0.081,9.771-0.341,7.589,0.287,5.716
			c0.214-0.639,0.543-1.211,0.974-1.699c0.245-0.276,0.893-0.956,1.666-1.37c0.471-0.308,1.044-0.504,1.753-0.6
			C4.809,2.03,5.707,1.95,6.034,1.95c0.056,0,0.108,0.004,0.155,0.01l3.954,0.004l0.099,0.008c0.049,0.008,0.093,0.013,0.167,0.014
			c0,0,0.034-0.024,0.087-0.125c0.45-0.848,1.221-1.424,2.357-1.762L13.419,0l0.249,0.031c0.196,0.002,0.377,0.077,0.507,0.21
			c0.208,0.214,0.2,0.473,0.196,0.583l-0.011,2.103c0.978,0.904,1.613,1.642,1.894,2.195c0.063,0.125,0.189,0.302,0.545,0.385
			c0.076,0.018,0.188,0.018,0.309,0.019c0.053,0.001,0.107,0.001,0.16,0.003c0.268-0.034,0.508,0.046,0.678,0.216
			c0.239,0.241,0.239,0.557,0.238,0.657l0.001,0.352c0,0.619,0,1.694-0.005,2.024c-0.007,0.814-0.686,0.839-0.763,0.839
			c-0.028,0-0.058,0-0.09-0.004c-0.612-0.032-1.014,0.228-1.362,0.897c-0.506,0.969-1.33,1.709-2.447,2.199
			c-0.271,0.118-0.445,0.236-0.569,0.384c-0.093,0.222-0.144,0.387-0.127,0.54c0.037,0.349-0.09,0.573-0.204,0.7
			c-0.113,0.127-0.327,0.277-0.693,0.277h-0.056c-0.092-0.003-0.185-0.006-0.276-0.006l-0.808,0.006c-0.482,0-1.763,0-1.771-1.201
			C9.013,13.203,9,13.177,8.775,13.174c-0.295-0.003-0.397-0.003-0.493-0.006c-0.097-0.003-0.19-0.003-0.482-0.006
			c-0.218,0-0.26,0.003-0.295,0.003c-0.044,0.003-0.083,0.006-0.354,0.006c-0.128,0-0.443,0-0.586,0.026
			c-0.034,0.142-0.052,0.451-0.059,0.563c-0.045,0.797-1.303,0.856-1.687,0.856H4.793z M7.148,11.954
			c0.229,0,0.261-0.003,0.298-0.003c0.042-0.003,0.09-0.006,0.353-0.006c0.313,0.003,0.409,0.003,0.509,0.006
			c0.093,0.003,0.19,0.003,0.479,0.006c0.864,0.01,1.411,0.537,1.442,1.399c0.098,0.026,0.283,0.038,0.555,0.038l0.808-0.006
			c0.006,0,0.014,0,0.02,0c0.032-0.321,0.143-0.602,0.252-0.85l0.066-0.115c0.329-0.451,0.76-0.679,1.1-0.829
			c0.857-0.375,1.483-0.931,1.858-1.647C15.382,9,16.066,8.492,16.967,8.409c0.002-0.457,0.002-1.187,0.002-1.653l-0.002-0.015
			c-0.136-0.003-0.285-0.014-0.441-0.049c-0.622-0.145-1.092-0.498-1.356-1.021c-0.127-0.251-0.525-0.84-1.759-1.967
			c-0.096-0.088-0.145-0.146-0.15-0.154l-0.118-0.162l0.012-2.11c-0.782,0.241-1.3,0.618-1.584,1.153
			c-0.271,0.511-0.673,0.77-1.193,0.77c-0.089,0-0.182-0.007-0.282-0.022L5.773,3.177C5.429,3.197,4.927,3.242,4.845,3.252
			C4.302,3.326,3.898,3.461,3.577,3.676L3.52,3.71C3.099,3.93,2.594,4.347,2.172,4.824c-0.323,0.365-0.57,0.795-0.732,1.28
			c-0.489,1.453-0.147,3.212,0.847,4.375c0.22,0.257,0.434,0.458,0.657,0.617c0.655,0.466,0.971,1.083,0.938,1.824
			c-0.006,0.142,0.001,0.28,0.009,0.422c0,0.018,0.001,0.035,0.001,0.05c0.307,0,0.616,0.006,0.922,0.013l0.003,0.604v-0.604
			c0.106,0,0.329-0.027,0.502-0.06C5.444,12.227,5.847,11.954,7.148,11.954z"/>
	</g>
	<g>
		<circle fill-rule="evenodd" clip-rule="evenodd" fill="#002060" cx="12.99" cy="6.014" r="0.749"/>
	</g>
</g>
</svg>