<svg id="Layer_1" data-name="Layer 1" xmlns="http://www.w3.org/2000/svg" viewBox="0 0 516.79 301"><defs><style>.cls-1{fill:#fff;}.cls-2{fill:#f0efef;}.cls-3{fill:#4ab749;}.cls-4{isolation:isolate;}.cls-5{fill:#fdc010;}</style></defs><title>partner-discounts</title><path class="cls-1" d="M219.48,226c.34-.38-2.87,2.57-1.53,10.59,0,0-2.29-6.62,1.53-10.59Z"/><path class="cls-2" d="M.76,106.79c2.08-.62,4.26-1.24,6.51-1.86a1.18,1.18,0,0,0,.68-.86Q9.8,98.24,11.8,92.38c.23-.79.77-1.18,1.21-.88a1.38,1.38,0,0,1,.46,1q1,6.61,2.1,13.33c.09.61.4,1,.77,1l7.57.37c.52-.06.93.59.91,1.46a2.18,2.18,0,0,1-.56,1.46q-3.21,3.67-6.21,7.28a2.33,2.33,0,0,0-.43,1.73q1,9,2.06,18.05a2,2,0,0,1-.59,2c-.31.2-.65.07-.89-.32-2.39-3.26-4.69-6.47-6.93-9.63a.54.54,0,0,0-.89-.15c-2.1,1.91-4.13,3.8-6.06,5.66-.37.43-.83.19-1-.53a2.92,2.92,0,0,1,0-1.35q1.23-7.14,2.56-14.36a2.3,2.3,0,0,0-.27-1.73Q2.9,113.15.36,109.62a2.38,2.38,0,0,1-.25-2C.25,107.12.5,106.82.76,106.79Z"/><path class="cls-2" d="M52,186,48.17,184a.36.36,0,0,0-.44.11c-1,1.19-2,2.37-3,3.55-.21.23-.52.14-.7-.2a1.17,1.17,0,0,1-.11-.49c0-2.16,0-4.32.08-6.48a1,1,0,0,0-.28-.73c-1.18-.94-2.34-1.89-3.48-2.83a1,1,0,0,1-.23-1,.52.52,0,0,1,.31-.37l3.5-.95a.58.58,0,0,0,.36-.57q.36-4.17.76-8.36c0-.41.28-.67.54-.6a.56.56,0,0,1,.35.38q1.24,3.27,2.54,6.56a.52.52,0,0,0,.46.39l4-.07c.27,0,.52.32.54.73a1,1,0,0,1-.11.52q-1.51,2.61-3,5.18a1,1,0,0,0,0,.87c.74,1.77,1.5,3.53,2.27,5.3a.87.87,0,0,1-.2,1A.37.37,0,0,1,52,186Z"/><path class="cls-2" d="M415.85,34.83q-2.33-.87-4.67-1.71a.49.49,0,0,0-.5.08l-3,3a.64.64,0,0,1-.86-.18.91.91,0,0,1-.2-.42c-.26-1.84-.52-3.66-.8-5.44a.88.88,0,0,0-.45-.61l-4.65-2.38a.76.76,0,0,1-.45-.81.37.37,0,0,1,.32-.28l4.08-.7a.38.38,0,0,0,.34-.45q-.29-3.32-.62-6.48c0-.31.19-.5.52-.44a.82.82,0,0,1,.5.3c1.4,1.67,2.8,3.38,4.18,5.12a.78.78,0,0,0,.61.32l4.58.05a.85.85,0,0,1,.74.59.52.52,0,0,1,0,.41l-2.56,4.09a.61.61,0,0,0,.1.71q1.68,2.19,3.35,4.45c.2.31.16.68-.1.8A.49.49,0,0,1,415.85,34.83Z"/><path class="cls-2" d="M494.76,237.37l-8-3.09a1.05,1.05,0,0,0-1.06.39q-4.05,4.5-8.39,8.93c-.6.58-1.34.49-1.64-.21a1.94,1.94,0,0,1-.1-1.06c.91-4.83,1.76-9.73,2.56-14.67a1.61,1.61,0,0,0-.45-1.57L470,220.6a1.91,1.91,0,0,1-.28-2.24,1.7,1.7,0,0,1,.9-.94c3-1,5.95-2.11,8.82-3.16a1.81,1.81,0,0,0,1-1.43q1.89-9.71,3.48-19.54c.15-.94.74-1.61,1.32-1.49a1.1,1.1,0,0,1,.73.83q2.23,7.34,4.37,14.49c.15.54.51.84.91.77q4.26-.58,8.3-1.18c.55-.09,1,.59.95,1.5a2.72,2.72,0,0,1-.3,1.19q-3.43,6.24-7.24,12.5a2.47,2.47,0,0,0-.28,2q1.76,5.61,3.53,11.12a2.34,2.34,0,0,1-.7,2.22A.86.86,0,0,1,494.76,237.37Z"/><path class="cls-2" d="M117.49,63.11c1.7-5.92,3.49-11.68,5.36-17.23a2,2,0,0,0-.22-1.84q-4.53-5.77-8.76-11.22a2.15,2.15,0,0,1,.6-2.78,2.51,2.51,0,0,1,1.41-.64q8.53-.78,17.22-1.52a2.69,2.69,0,0,0,2-1.37c2.83-4.83,5.73-9.4,8.67-13.65a2.59,2.59,0,0,1,2.72-1.06,1.15,1.15,0,0,1,.85,1q.56,5.94,1.41,12.57a1.41,1.41,0,0,0,1.46,1.23q11.06.09,22.29.25A1.52,1.52,0,0,1,174,28.77a2.41,2.41,0,0,1-1,1.45q-8.91,6-17.89,12.55A2.61,2.61,0,0,0,154,44.83c0,5.57.19,11.38.43,17.4a2.69,2.69,0,0,1-1.94,2.68,1.64,1.64,0,0,1-1.43-.31L136.82,53.17a1.83,1.83,0,0,0-2.31.18q-7.15,5.73-14.17,11.7a1.66,1.66,0,0,1-2.68-.24A2.38,2.38,0,0,1,117.49,63.11Z"/><path class="cls-2" d="M117.9,140q-7.71,3-15.16,5.94a2.38,2.38,0,0,0-1.33,1.75q-2.5,10.09-4.7,20.1c-.28,1.34-1.34,2.07-2.35,1.64a2.28,2.28,0,0,1-1.14-1.22Q88.81,158,84.78,148A1.77,1.77,0,0,0,83,146.7q-7.36,1.23-14.38,2.43c-1,.17-1.84-.79-1.95-2.16a3.21,3.21,0,0,1,.51-2.1c3.16-4.52,6.41-9.09,9.77-13.67a3.33,3.33,0,0,0,.44-2.81q-3.86-13.17-7.08-25.87a3.11,3.11,0,0,1,1.14-3.25,1.37,1.37,0,0,1,1.5,0q7.57,5.13,15.64,10.5a1.55,1.55,0,0,0,2-.28q6.54-6.15,13.37-12.29a1.62,1.62,0,0,1,2.68.44,2.86,2.86,0,0,1,.22,1.8c-1.43,7.94-2.72,16-3.86,24.13a2.67,2.67,0,0,0,1,2.63q7,4.43,14.38,9a3,3,0,0,1,.8,3.53A2.39,2.39,0,0,1,117.9,140Z"/><path class="cls-2" d="M103.67,181.93c4.73,11.56,9.8,23,15.15,34.2a7.47,7.47,0,0,0,3.13,3.38c10,5.27,20.2,10.46,30.53,15.51a7.67,7.67,0,0,1,3.93,8.46,5.06,5.06,0,0,1-1.47,2.45l-22.27,19.74a4.48,4.48,0,0,0-1.15,4.58,202.8,202.8,0,0,0,8.68,26.45c1,2.36-.49,4.21-3.31,4.3a8.11,8.11,0,0,1-3.71-.86,292.64,292.64,0,0,1-34.11-20.21c-2.07-1.42-4.43-1.67-5.94-.59-5.35,3.8-10.6,7.52-15.84,11.26-2,1.37-5.35.54-7.47-2a6.55,6.55,0,0,1-1.63-4.27c.26-8.09.66-16.57,1.26-25.44a8.42,8.42,0,0,0-2.39-6.11,361.05,361.05,0,0,1-25-29c-2-2.59-2.38-6.61-.92-9a3.18,3.18,0,0,1,3-1.69c10.09.94,20.88,1.82,32.24,2.63a4,4,0,0,0,3.93-2.71c4.33-10.36,9-21.13,14.19-32.21,1.51-3.12,4.78-3.85,7.3-1.58A7.38,7.38,0,0,1,103.67,181.93Z"/><path class="cls-2" d="M182.86,279.49c4.07,3.45,4.1,8.14-.66,9.1-5.95,1.27-9.4-5.11-6.74-9.07C177.34,276.78,180.55,277.51,182.86,279.49Z"/><path class="cls-2" d="M25.27,203.74c-.17,5.76-3.56,8.59-6.67,4.61-3.83-5-.89-11.83,2.94-11.51C24.26,197.07,25.38,200.42,25.27,203.74Z"/><path class="cls-2" d="M181.13,130.46c-5.62-6-4.8-16.13,2.75-19.31,9.47-4.13,13.13,9.09,8.43,17.57C189,134.68,184.37,133.9,181.13,130.46Z"/><path class="cls-3" d="M12.65,67.44c20.81-2.5,45.44-4.57,72.57-6.21,3.08-.18,5.14,2.74,4.6,6.61-2.06,15-3.52,30.9-4.38,47.16-.23,4.2-2.89,7.68-6,7.75-26.94.68-50.43,1.54-68.67,2.57-2.07.11-3.64-2.87-3.59-6.66q.28-22.06,1-43.92C8.31,71,10.27,67.73,12.65,67.44Z"/><g class="cls-4"><path class="cls-1" d="M23.35,100.44q-3.45.28-6.74.58c.06-1.54.12-3.09.19-4.63l6.8-.63C23.51,97.32,23.43,98.88,23.35,100.44Z"/><path class="cls-1" d="M34.53,109.9l-3.74.23q.53-11.38,1.36-22.58l-4.62,2.54c.1-1.57.21-3.13.32-4.7q4-2.51,8.3-5l.41,0C35.7,90,35,99.92,34.53,109.9Z"/><path class="cls-1" d="M42.37,94.76q1.14-7.61,2.46-15.09,5.73-.45,11.73-.89l-.51,4.89-8.34.6q-.55,3.2-1.08,6.41a5.7,5.7,0,0,1,3.2-1.34,4.43,4.43,0,0,1,4.46,2.33c1,1.7,1.35,4.15,1.11,7.37a16.67,16.67,0,0,1-1.24,5.32,9.77,9.77,0,0,1-2.68,3.75,6.32,6.32,0,0,1-3.79,1.47,5.24,5.24,0,0,1-3.34-.93,6.37,6.37,0,0,1-2.28-3,11,11,0,0,1-.66-4.5l3.94-.25a5,5,0,0,0,.69,2.87,2.06,2.06,0,0,0,1.93.94,2.7,2.7,0,0,0,2.23-1.59,10,10,0,0,0,1-4.19,6.76,6.76,0,0,0-.57-3.87,2.34,2.34,0,0,0-2.35-1.2,3.37,3.37,0,0,0-2.43,1.27l-.44.56Z"/><path class="cls-1" d="M59.33,84.24a8.22,8.22,0,0,1,1.76-4.52,5,5,0,0,1,3.62-1.92A3.47,3.47,0,0,1,68,79.25a6.39,6.39,0,0,1,.83,4.49l-.15,1.48a8.24,8.24,0,0,1-1.77,4.57,4.91,4.91,0,0,1-3.6,1.9,3.47,3.47,0,0,1-3.27-1.5,6.54,6.54,0,0,1-.86-4.49C59.23,85.21,59.28,84.73,59.33,84.24ZM62,85.63a3.16,3.16,0,0,0,.32,2,1.34,1.34,0,0,0,1.29.67,1.86,1.86,0,0,0,1.41-.85,4.17,4.17,0,0,0,.71-2.07l.15-1.52a3.2,3.2,0,0,0-.29-2,1.3,1.3,0,0,0-1.29-.67,1.92,1.92,0,0,0-1.42.84,4.16,4.16,0,0,0-.73,2.11Zm1,20.5-2-1.51c4.07-8.16,8.39-16.29,13-24.29l2,1.43C71.46,89.79,67.13,97.94,63.05,106.13Zm5.24-5.47A8.11,8.11,0,0,1,70,96a5,5,0,0,1,3.68-1.91,3.76,3.76,0,0,1,3.44,1.54,6.85,6.85,0,0,1,1,4.69L78,101.86a8.19,8.19,0,0,1-1.68,4.68,4.83,4.83,0,0,1-3.68,1.91,3.78,3.78,0,0,1-3.45-1.62,6.92,6.92,0,0,1-1-4.61Zm2.82,1.51a3.22,3.22,0,0,0,.42,2,1.44,1.44,0,0,0,1.33.77c1.26-.06,2-1,2.11-3l.12-1.61a3.34,3.34,0,0,0-.37-2,1.42,1.42,0,0,0-1.34-.71,1.89,1.89,0,0,0-1.46.84,4.07,4.07,0,0,0-.69,2.13Z"/></g><path class="cls-3" d="M158.06,34.87c16.63-.5,33.59-.87,50.72-1.12a5.55,5.55,0,0,1,5.75,6.13c-.79,10.29-1.45,21.58-2,33.54-.18,4.07-3.29,7.49-7,7.53-18.16.23-36.05.57-53.39,1-3.5.1-6-3.16-5.64-7.19,1.16-11.84,2.6-23.09,4.34-33.46A7.87,7.87,0,0,1,158.06,34.87Z"/><g class="cls-4"><path class="cls-1" d="M165.59,61.3l-8,.23c.13-1.22.28-2.44.42-3.65l8-.23C165.86,58.86,165.72,60.08,165.59,61.3Z"/><path class="cls-1" d="M169.69,57.93q1.22-5.79,2.5-11.29l11.53-.28q-.19,1.78-.39,3.6l-8.23.2c-.35,1.57-.7,3.17-1,4.78a6.69,6.69,0,0,1,3.21-.92,5.07,5.07,0,0,1,4.46,1.88c1,1.3,1.39,3.16,1.18,5.61a10,10,0,0,1-1.21,4.05,7.56,7.56,0,0,1-2.7,2.85,7.7,7.7,0,0,1-3.88,1.09,6.9,6.9,0,0,1-3.46-.79,5.49,5.49,0,0,1-2.35-2.37,6.51,6.51,0,0,1-.65-3.51l4.09-.1a3.27,3.27,0,0,0,.7,2.24,2.48,2.48,0,0,0,2,.76,2.81,2.81,0,0,0,2.28-1.18,6.15,6.15,0,0,0,1.05-3.2,4.22,4.22,0,0,0-.59-3,2.75,2.75,0,0,0-2.38-1,3.87,3.87,0,0,0-2.47.9l-.44.42Z"/><path class="cls-1" d="M186.52,50.48a5,5,0,0,1,1.58-3.29,4.93,4.93,0,0,1,3.37-1.31A4,4,0,0,1,194.63,47a4.11,4.11,0,0,1,.94,3.33c0,.36-.07.73-.1,1.09a5,5,0,0,1-1.54,3.35,4.87,4.87,0,0,1-3.4,1.33,4,4,0,0,1-3.19-1.21,4.17,4.17,0,0,1-.93-3.38C186.45,51.19,186.48,50.83,186.52,50.48Zm2.63,1.11a1.93,1.93,0,0,0,.36,1.46,1.48,1.48,0,0,0,1.25.53,1.79,1.79,0,0,0,1.33-.59,2.55,2.55,0,0,0,.61-1.52c0-.38.07-.75.11-1.12a2,2,0,0,0-.34-1.45,1.42,1.42,0,0,0-1.25-.53,1.82,1.82,0,0,0-1.32.57,2.45,2.45,0,0,0-.64,1.54C189.22,50.85,189.19,51.22,189.15,51.59Zm1.34,15.5-2-1.19c3.92-6.18,7.84-12.17,11.73-17.89.65.36,1.29.73,1.93,1.1C198.3,54.87,194.39,60.88,190.49,67.09Zm5-4.08A5.11,5.11,0,0,1,197,59.54a4.86,4.86,0,0,1,3.41-1.35,4.14,4.14,0,0,1,3.26,1.23,4.48,4.48,0,0,1,1,3.54c0,.38,0,.77-.07,1.15a5.32,5.32,0,0,1-1.47,3.52,4.8,4.8,0,0,1-3.46,1.4,4.16,4.16,0,0,1-3.31-1.3,4.62,4.62,0,0,1-1-3.53Zm2.71,1.21a2.14,2.14,0,0,0,.43,1.5,1.53,1.53,0,0,0,1.28.61c1.2,0,1.84-.76,1.93-2.2,0-.41,0-.82.08-1.22a2.13,2.13,0,0,0-.4-1.53,1.5,1.5,0,0,0-1.27-.56,1.82,1.82,0,0,0-1.36.6,2.54,2.54,0,0,0-.6,1.59Z"/></g><path class="cls-3" d="M101,142.93c34.87-.19,74.23-.31,114.76-.36,3.24,0,5.86,3.13,5.86,7,0,22.34.28,44.7.85,65.5.1,3.61-2.37,6.47-5.52,6.43-39.44-.38-77.9-1.33-112.56-2.84-2.78-.12-5.3-3-5.63-6.51-1.9-20.1-2.84-41.33-2.81-62.54C96,146,98.24,143,101,142.93Z"/><g class="cls-4"><path class="cls-1" d="M120.76,188.92,109,188.64c-.12-2.06-.22-4.14-.31-6.22l11.78.24Q120.6,185.8,120.76,188.92Z"/><path class="cls-1" d="M131.33,179.71l3.34,0a4,4,0,0,0,3.5-1.45,6.18,6.18,0,0,0,1-4,5.81,5.81,0,0,0-1.25-3.78,4.05,4.05,0,0,0-3.18-1.37,3.86,3.86,0,0,0-3,1.21,4.29,4.29,0,0,0-1.13,3.23l-6.21-.08a11.27,11.27,0,0,1,1.17-5.56,9.27,9.27,0,0,1,3.62-3.85,10.14,10.14,0,0,1,5.26-1.36,10.63,10.63,0,0,1,8,3.1c2,2,3,4.86,3.08,8.42a9.58,9.58,0,0,1-1.19,5,8.74,8.74,0,0,1-3.4,3.47,9,9,0,0,1,4.18,3.66,12,12,0,0,1,1.59,5.66q.25,5.25-2.66,8.29a10,10,0,0,1-8,2.91,11.17,11.17,0,0,1-7.86-3.24,11.9,11.9,0,0,1-3.44-8.17L131,192a5.31,5.31,0,0,0,1.52,3.62,4.69,4.69,0,0,0,3.35,1.46,4.06,4.06,0,0,0,3.43-1.38,5.41,5.41,0,0,0,1.07-3.85c-.19-3.92-2-5.93-5.5-6l-3.32-.06Q131.45,182.78,131.33,179.71Z"/><path class="cls-1" d="M151.76,183.83q.57-10.11,1.37-20.4l18.49.09q0,3.38.09,6.73l-13.14-.09q-.33,4.34-.6,8.64a8.57,8.57,0,0,1,4.89-1.46,9.13,9.13,0,0,1,7.5,3.63c1.86,2.4,2.86,5.73,3,10a16.5,16.5,0,0,1-1.07,6.84,9.4,9.4,0,0,1-9.44,6.14,11.64,11.64,0,0,1-9.73-5.65,13.17,13.17,0,0,1-1.84-6l6.37.11a6.74,6.74,0,0,0,1.6,3.85,4.39,4.39,0,0,0,3.26,1.42,3.52,3.52,0,0,0,3.3-1.85,9.92,9.92,0,0,0,1-5.41,8.82,8.82,0,0,0-1.56-5.22,4.87,4.87,0,0,0-4-1.86,4.77,4.77,0,0,0-3.7,1.43l-.61.71Z"/><path class="cls-1" d="M177,171.37a8.87,8.87,0,0,1,1.91-6.07,6.52,6.52,0,0,1,5.25-2.32,6.84,6.84,0,0,1,5.36,2.34,9.36,9.36,0,0,1,2.11,6.28l0,2a8.67,8.67,0,0,1-1.91,6,6.48,6.48,0,0,1-5.22,2.23,6.93,6.93,0,0,1-5.35-2.33,9.26,9.26,0,0,1-2.14-6.2C177,172.69,177,172,177,171.37Zm4.46,2.18a4.34,4.34,0,0,0,.85,2.69,2.6,2.6,0,0,0,2.11,1,2.37,2.37,0,0,0,2-1,4.45,4.45,0,0,0,.71-2.76l0-2.07a4.57,4.57,0,0,0-.81-2.72,2.51,2.51,0,0,0-2.12-1,2.39,2.39,0,0,0-2,1,4.43,4.43,0,0,0-.74,2.83Zm5,27.27c-1.11-.69-2.21-1.39-3.31-2.09,5-10.21,10.28-20.72,15.72-31.37,1.1.72,2.21,1.44,3.33,2.15C196.71,180.15,191.43,190.65,186.41,200.82Zm7.18-6.65a8.31,8.31,0,0,1,1.87-6,6.57,6.57,0,0,1,5.25-2.23,7.09,7.09,0,0,1,5.41,2.29,9.14,9.14,0,0,1,2.19,6.2c0,.65,0,1.31.05,2a8.27,8.27,0,0,1-1.84,5.87,6.49,6.49,0,0,1-5.24,2.17,7.11,7.11,0,0,1-5.41-2.3,8.89,8.89,0,0,1-2.22-6Zm4.51,2.17a4.18,4.18,0,0,0,.91,2.57,2.64,2.64,0,0,0,2.12,1.08c1.89,0,2.8-1.19,2.73-3.65l-.06-2.07a4.25,4.25,0,0,0-.86-2.66,2.58,2.58,0,0,0-2.12-1,2.44,2.44,0,0,0-2.07,1,4.18,4.18,0,0,0-.71,2.72Z"/></g><path class="cls-3" d="M27.66,260.85c14.71,1.31,30.34,2.47,46.7,3.49,3,.19,6.09,3.17,6.89,6.55,1.71,7.31,3.6,14.25,5.68,20.74,1,3-.75,5.31-3.88,5.29q-25.36-.3-50.41-.67c-3.09,0-6-2.85-6.43-6.34Q24.7,278.66,23.46,267C23.09,263.36,25,260.61,27.66,260.85Z"/><g class="cls-4"><path class="cls-1" d="M43,282.61l-5-.25-.42-2.43,5,.27Z"/><path class="cls-1" d="M52.38,288.08,49.73,288q-1.23-5.57-2.35-11.35l-2.84.93c-.15-.81-.31-1.63-.46-2.45L49,273.2h.27C50.22,278.29,51.27,283.26,52.38,288.08Z"/><path class="cls-1" d="M64.24,282.65c.49,2,.5,3.48,0,4.49a2.88,2.88,0,0,1-3,1.44,5.21,5.21,0,0,1-3.73-1.66,9.5,9.5,0,0,1-2.22-4.53l-.6-2.71c-.45-2.07-.41-3.64.12-4.69a2.78,2.78,0,0,1,2.92-1.44,5.16,5.16,0,0,1,3.62,1.8A10.78,10.78,0,0,1,63.59,280C63.8,280.87,64,281.76,64.24,282.65Zm-3.34-3.08a7.9,7.9,0,0,0-1.06-2.7,2.08,2.08,0,0,0-1.58-.92,1.05,1.05,0,0,0-1.18.73,5.32,5.32,0,0,0,.09,2.48c.27,1.2.54,2.39.82,3.58a7.18,7.18,0,0,0,1.06,2.65,2.08,2.08,0,0,0,1.64.91,1,1,0,0,0,1.2-.76,5.56,5.56,0,0,0-.17-2.5C61.44,281.89,61.17,280.74,60.9,279.57Z"/><path class="cls-1" d="M64.6,277a2.55,2.55,0,0,1,.28-2.17,2,2,0,0,1,1.87-.74A3.66,3.66,0,0,1,69,275a4.4,4.4,0,0,1,1.33,2.3l.18.73a2.43,2.43,0,0,1-.26,2.12,2.1,2.1,0,0,1-1.89.72,3.64,3.64,0,0,1-2.3-.92,4.14,4.14,0,0,1-1.33-2.28C64.71,277.45,64.65,277.21,64.6,277Zm1.93.87a1.92,1.92,0,0,0,.54,1,1.46,1.46,0,0,0,.92.41.75.75,0,0,0,.72-.33,1.23,1.23,0,0,0,.06-1c-.06-.25-.11-.5-.17-.75a2.08,2.08,0,0,0-.54-1,1.36,1.36,0,0,0-.91-.42.75.75,0,0,0-.73.32,1.35,1.35,0,0,0-.07,1Zm4.16,9.82-1.5-.78q1.8-5.37,3.67-10.94l1.48.83C73.1,280.47,71.89,284.09,70.69,287.66ZM73,285.38a2.29,2.29,0,0,1,.25-2.08,2.1,2.1,0,0,1,1.89-.72,3.91,3.91,0,0,1,2.34.88,4.18,4.18,0,0,1,1.42,2.19c.06.23.12.46.19.69A1.94,1.94,0,0,1,77,289.08a3.94,3.94,0,0,1-2.38-.86,4,4,0,0,1-1.39-2.13Zm2,.81a1.83,1.83,0,0,0,.59.92,1.55,1.55,0,0,0,.94.4c.76,0,1-.39.77-1.25l-.21-.73a1.82,1.82,0,0,0-.57-.94,1.49,1.49,0,0,0-.93-.39.78.78,0,0,0-.74.33,1.17,1.17,0,0,0,0,.94C74.88,285.71,74.94,286,75,286.19Z"/></g><path class="cls-5" d="M100.12,131.71C94,131.81,89,138.39,89,146.43S93.84,161,100,161.1s11.1-6.53,11.15-14.73h0c.05-8.2-4.86-14.75-11-14.66Z"/><path class="cls-1" d="M101.33,150.09a2.52,2.52,0,0,0-.28-1.49,4,4,0,0,0-1.31-1.31,7.19,7.19,0,0,1-2.22-2.24,4.81,4.81,0,0,1-.47-3,4.51,4.51,0,0,1,1.15-2.64,2.88,2.88,0,0,1,2.25-.91c.1-.74.19-1.49.29-2.23l1.22.22c-.1.75-.19,1.5-.29,2.25a3.36,3.36,0,0,1,1.88,1.88,6.68,6.68,0,0,1,.36,3.42l-1.87-.35a4.5,4.5,0,0,0-.19-2.13,1.48,1.48,0,0,0-1.12-1,1.27,1.27,0,0,0-1.23.35,2.51,2.51,0,0,0-.58,1.5,2.55,2.55,0,0,0,.24,1.48,4.45,4.45,0,0,0,1.36,1.34,7.11,7.11,0,0,1,2.24,2.26,5.39,5.39,0,0,1-.64,5.63,3,3,0,0,1-2.34.81c-.07.67-.14,1.33-.2,2l-1.22-.24c.06-.66.13-1.32.2-2A3.82,3.82,0,0,1,96.44,152a5.54,5.54,0,0,1-.49-3.49h0l1.8.35a3.41,3.41,0,0,0,.3,2.17,1.85,1.85,0,0,0,2.65.6A2.31,2.31,0,0,0,101.33,150.09Z"/><path class="cls-5" d="M11.09,57.29c-4.36.51-7.79,6.33-7.85,13s2.9,11.65,6.85,11.18,7.66-6.32,8.12-13S15.44,56.78,11.09,57.29Z"/><path class="cls-1" d="M11.4,72.19A2.22,2.22,0,0,0,11.26,71a2.39,2.39,0,0,0-.83-1A4.44,4.44,0,0,1,9,68.34,4.36,4.36,0,0,1,8.75,66a4.47,4.47,0,0,1,.81-2.24,2.12,2.12,0,0,1,1.58-.93c.08-.61.17-1.22.26-1.82l.84.09c-.09.61-.17,1.23-.25,1.84a2,2,0,0,1,1.23,1.35A6,6,0,0,1,13.34,67l-1.26-.15A4.11,4.11,0,0,0,12,65.13c-.13-.43-.41-.7-.73-.7a.87.87,0,0,0-.86.37A2.46,2.46,0,0,0,10,66a2.27,2.27,0,0,0,.11,1.23,2.65,2.65,0,0,0,.9,1,4.63,4.63,0,0,1,1.42,1.67,4.38,4.38,0,0,1,.21,2.39,4.44,4.44,0,0,1-.84,2.28,2.09,2.09,0,0,1-1.58.86L10,77.08,9.23,77c.06-.55.13-1.1.19-1.65a2.11,2.11,0,0,1-1.33-1.27,5.18,5.18,0,0,1-.24-2.83h0L9,71.37a3.3,3.3,0,0,0,.14,1.76,1,1,0,0,0,.82.62,1,1,0,0,0,.93-.36A2.24,2.24,0,0,0,11.4,72.19Z"/><path class="cls-5" d="M24.52,252.86c-4-.4-6.77,3.81-6.33,9.36s4.24,10.26,8.54,10.56,7.15-3.79,6.39-9.24-4.62-10.28-8.6-10.68Z"/><path class="cls-1" d="M26.84,265.48a1.94,1.94,0,0,0-.31-1,3.26,3.26,0,0,0-1-1,6.12,6.12,0,0,1-1.66-1.6,3.64,3.64,0,0,1-.55-2.05,2.61,2.61,0,0,1,.53-1.73,1.58,1.58,0,0,1,1.43-.48c0-.48,0-1,0-1.45l.83.23v1.46a3.19,3.19,0,0,1,1.41,1.41,4.86,4.86,0,0,1,.53,2.34l-1.28-.35a3.23,3.23,0,0,0-.31-1.48,1.32,1.32,0,0,0-.81-.74.78.78,0,0,0-.8.16,1.43,1.43,0,0,0-.27.93,2.1,2.1,0,0,0,.28,1.06,4.15,4.15,0,0,0,1,1,7.33,7.33,0,0,1,1.68,1.66,3.69,3.69,0,0,1,.57,2,2.37,2.37,0,0,1-.55,1.74,1.82,1.82,0,0,1-1.54.42v1.32l-.87-.23c0-.44,0-.89,0-1.34a3.3,3.3,0,0,1-1.57-1.29,4,4,0,0,1-.58-2.4h0l1.25.36a2.61,2.61,0,0,0,.36,1.48,1.56,1.56,0,0,0,.94.66,1,1,0,0,0,.93-.11A1.23,1.23,0,0,0,26.84,265.48Z"/><path class="cls-5" d="M156.69,27.13a12,12,0,0,0-10.93,9.46c-1,5.22,2.45,9.56,7.61,9.37s10-4.78,10.83-10-2.48-9-7.5-8.87Z"/><path class="cls-1" d="M155.74,38.63a1.36,1.36,0,0,0-.06-1,2.28,2.28,0,0,0-1-.82,4,4,0,0,1-1.62-1.32,2.23,2.23,0,0,1-.07-1.88,3.27,3.27,0,0,1,1.2-1.67,3.4,3.4,0,0,1,2-.62c.15-.45.31-.9.46-1.34l1,.12c-.15.44-.3.89-.46,1.34a2,2,0,0,1,1.36,1.13,3.11,3.11,0,0,1-.07,2.14L157,34.56a2.13,2.13,0,0,0,.07-1.36.89.89,0,0,0-.8-.59,1.53,1.53,0,0,0-1.06.24,1.8,1.8,0,0,0-.64.91,1.17,1.17,0,0,0,0,1,2.75,2.75,0,0,0,1,.81,4.36,4.36,0,0,1,1.62,1.33,2.32,2.32,0,0,1,.08,1.89A3.29,3.29,0,0,1,156,40.54a3.49,3.49,0,0,1-2,.6l-.39,1.34-1-.13c.13-.44.26-.89.4-1.33a2.33,2.33,0,0,1-1.57-1.09,2.69,2.69,0,0,1,0-2.26h0l1.47.19a1.72,1.72,0,0,0,0,1.39,1.23,1.23,0,0,0,1,.55,1.86,1.86,0,0,0,1.2-.22A1.93,1.93,0,0,0,155.74,38.63Z"/><path class="cls-2" d="M516.68,114.71a2.45,2.45,0,0,1-.24,2.05q-2.51,3.57-5.12,7.25a2.43,2.43,0,0,0-.27,1.74q1.31,7.2,2.51,14.31a2.83,2.83,0,0,1,0,1.36c-.2.73-.66,1-1,.55-1.93-1.83-3.93-3.68-6-5.55-.29-.28-.63-.22-.88.15-2.24,3.2-4.55,6.45-7,9.76-.24.39-.58.52-.89.33a2,2,0,0,1-.57-2c.77-6.07,1.48-12.12,2.16-18.11a2.36,2.36,0,0,0-.42-1.73q-3-3.58-6.11-7.23a2.11,2.11,0,0,1-.54-1.46c0-.87.39-1.53.91-1.47l7.5-.47c.37,0,.67-.42.77-1q1.08-6.75,2.13-13.4a1.4,1.4,0,0,1,.46-1c.43-.31,1,.08,1.18.87q2,5.86,3.75,11.67a1.14,1.14,0,0,0,.67.85q3.33.9,6.41,1.78C516.31,114,516.55,114.26,516.68,114.71Z"/><path class="cls-2" d="M414.13,282.48c-.49-.23-.55-.88-.13-1.44q3.36-4,6.64-8.28a1.24,1.24,0,0,0,.2-1.37q-2.49-4-5.1-8.24a1.15,1.15,0,0,1-.1-.85,1.61,1.61,0,0,1,1.4-1.25l8.86-.19a1.42,1.42,0,0,0,1.12-.69q3.78-5.62,7.4-11.5a1.49,1.49,0,0,1,.88-.72c.61-.15,1.08.29,1.05,1q-.18,7.32-.58,14.29a.8.8,0,0,0,.65.93l7.57,1.32a.75.75,0,0,1,.6.59,1.65,1.65,0,0,1-.81,1.67c-2.84,1.65-5.73,3.27-8.64,4.87a1.7,1.7,0,0,0-.85,1.18q-.87,5.22-1.85,10.17a1.43,1.43,0,0,1-.42.74,1.25,1.25,0,0,1-1.63.31l-5.5-5.37a1,1,0,0,0-.95-.16q-4.51,1.54-9.08,3A1,1,0,0,1,414.13,282.48Z"/><path class="cls-2" d="M324,64.54a2.56,2.56,0,0,1-3.9.41c-6.34-5.22-12.67-10.29-18.91-15.16a2.68,2.68,0,0,0-3.24-.16q-10.53,7.56-21.66,15.78a2.61,2.61,0,0,1-2.06.47,3.13,3.13,0,0,1-2.36-3.55c1.17-8.09,2.28-15.8,3.32-23a2.8,2.8,0,0,0-1.13-2.62c-7.45-5.38-14.7-10.44-21.67-15.13a2.21,2.21,0,0,1-1-1.73,2.48,2.48,0,0,1,2.53-2.4q15-.51,30-.92a2.34,2.34,0,0,0,2.23-1.5c1.68-5.18,3.22-9.84,4.61-13.92a1.79,1.79,0,0,1,1.32-1,3.26,3.26,0,0,1,3.31,1c2.95,4.32,6,9.33,9,14.93a3,3,0,0,0,2.5,1.55q11.72.63,23.41,1.34a3.38,3.38,0,0,1,1.87.73,2.27,2.27,0,0,1,.55,3.33q-6.45,6.74-13.54,14.28a2.51,2.51,0,0,0-.52,2.38c2,7.09,3.91,14.66,5.79,22.58A3.08,3.08,0,0,1,324,64.54Z"/><path class="cls-2" d="M340.11,139.79a3,3,0,0,1,.9-3.62q8-4.71,15.84-9.35a2.71,2.71,0,0,0,1.14-2.71c-1.15-8.37-2.39-16.66-3.74-24.79a2.83,2.83,0,0,1,.29-1.85,1.86,1.86,0,0,1,2.95-.49q7.32,6.18,14.5,12.46a1.8,1.8,0,0,0,2.19.27q9.12-5.65,17.81-11.09a1.67,1.67,0,0,1,1.7,0,3,3,0,0,1,1.25,3.34c-2.59,8.79-5.39,17.8-8.39,26.94a3.19,3.19,0,0,0,.48,2.92Q392.7,139,398.14,146a3.09,3.09,0,0,1,.59,2.19c-.14,1.43-1.15,2.43-2.26,2.25L380.08,148A2,2,0,0,0,378,149.3c-3,6.94-6.19,13.92-9.43,20.88a2.37,2.37,0,0,1-1.25,1.26,2,2,0,0,1-2.63-1.71c-1.66-6.87-3.41-13.8-5.25-20.74a2.43,2.43,0,0,0-1.45-1.8q-8.22-3-16.59-6.08A2.42,2.42,0,0,1,340.11,139.79Z"/><path class="cls-2" d="M291,173.36a4.23,4.23,0,0,1,6.53,1.44c4.89,9,9.68,17.9,14.3,26.56a4.31,4.31,0,0,0,3.81,2.4c10.51-.17,20.92-.37,31.17-.6a3.87,3.87,0,0,1,3.14,1.58,6,6,0,0,1-.56,7.46c-7.34,7.76-14.74,15.36-22.13,22.68a5.58,5.58,0,0,0-1.58,5c1.46,7.42,2.79,14.52,4,21.2a4.6,4.6,0,0,1-.89,3.48,4.67,4.67,0,0,1-6.06,1.53q-7.47-4.79-15.32-9.92a4.35,4.35,0,0,0-5,.32C294.1,262.7,286,268.59,278.1,274a4.73,4.73,0,0,1-2.82.82,4,4,0,0,1-4-4.17c.58-7.31,1.15-15.28,1.72-23.76a4.81,4.81,0,0,0-1.7-4Q261,234.49,250.26,225.4a5.21,5.21,0,0,1-1.45-2.07,5.43,5.43,0,0,1,2.42-6.81q12-5.64,24.24-11.51a5.23,5.23,0,0,0,2.44-2.63c3.84-8.81,7.7-17.83,11.55-26.94A5.37,5.37,0,0,1,291,173.36Z"/><path class="cls-2" d="M403.31,250.54c2.55,4.65-.91,12.74-6.82,11.31-4.71-1.1-4.49-7-.42-11.18C398.39,248.24,401.51,247.3,403.31,250.54Z"/><path class="cls-2" d="M465.89,162.62c4.54-.07,8.15,7.43,3.76,12.46-3.53,4-7.48.81-7.89-5.35C461.52,166.18,462.7,162.69,465.89,162.62Z"/><path class="cls-2" d="M275,127.11c-6.25-11.32-1-28.82,11.78-23.44,10.19,4.14,11.16,17.67,3.41,25.72C285.74,134,279.43,135.06,275,127.11Z"/><path class="cls-3" d="M505.7,74.38c.6,14.57,1,29.3,1.27,44.09.06,3.81-1.55,6.81-3.67,6.7-18.74-1-42.65-1.85-69.92-2.52-3.09-.07-5.79-3.56-6-7.77C426.51,98.57,425,82.65,423,67.62c-.53-3.87,1.54-6.8,4.65-6.62,27.37,1.6,52.3,3.62,73.48,6.08C503.52,67.36,505.55,70.63,505.7,74.38Z"/><path class="cls-3" d="M374.43,41.63C376.25,52,377.77,63.26,379,75.07c.42,4-2.07,7.26-5.53,7.16-21.55-.63-44-1.08-66.94-1.34-3.67,0-6.78-3.45-6.94-7.52-.47-12-1.07-23.26-1.79-33.54a5.62,5.62,0,0,1,5.82-6.14c21.56.28,42.89.76,63.64,1.44A8,8,0,0,1,374.43,41.63Z"/><path class="cls-3" d="M429.74,155.66a623,623,0,0,1-4.52,71.63c-.49,3.94-3.47,7.2-6.64,7.37-39.69,2.08-84.24,3.31-129.67,3.69-3.63,0-6.49-3.12-6.39-7.15.58-23.2.89-49.12.93-75.22,0-4.53,3.09-8.21,6.89-8.21,47.52,0,93.86.07,133.69.15C427.22,147.93,429.77,151.4,429.74,155.66Z"/><g class="cls-4"><path class="cls-1" d="M312.53,200.58q-7.62.07-15.32.12.09-3.69.15-7.43l15.38-.11C312.68,195.64,312.61,198.12,312.53,200.58Z"/><path class="cls-1" d="M341.43,198.93l4.37-.07q-.17,3.67-.36,7.3l-4.35.07c-.17,3.27-.36,6.51-.55,9.71l-7.63.14q.29-4.82.51-9.73l-16,.22c0-1.9-.09-3.81-.14-5.72,5.8-10.17,11.56-20.58,17.17-31l7.85,0C342.14,179.61,341.85,189.38,341.43,198.93Zm-16.32.22,8.63-.11q.33-8.13.54-16.44l-.54,1.07Q329.47,191.47,325.11,199.15Z"/><path class="cls-1" d="M375.38,196.62c-.36,6.29-1.75,11-4.11,14.36a11.69,11.69,0,0,1-9.74,5.1c-4.08.1-7.1-1.4-9.08-4.57s-2.84-7.78-2.61-13.94q.2-4.23.36-8.5c.24-6.49,1.48-11.5,3.79-14.92a11.14,11.14,0,0,1,9.69-5.19,10.21,10.21,0,0,1,9.33,4.95c2.07,3.33,3,8.1,2.79,14.28C375.68,191,375.53,193.82,375.38,196.62Zm-7-9.15c.16-3.83-.17-6.64-1-8.39a4,4,0,0,0-3.94-2.61,4.37,4.37,0,0,0-4,2.57c-.9,1.7-1.43,4.33-1.61,7.89-.15,3.77-.31,7.51-.5,11.22s.07,6.47.81,8.24A3.76,3.76,0,0,0,362,209a4.53,4.53,0,0,0,4.11-2.65,20.51,20.51,0,0,0,1.73-7.93Q368.18,193,368.41,187.47Z"/><path class="cls-1" d="M381.06,178.4a11,11,0,0,1,2.41-7,7.37,7.37,0,0,1,5.82-2.73,6.78,6.78,0,0,1,5.68,2.56,10.31,10.31,0,0,1,1.93,7.05l-.09,2.28a10.73,10.73,0,0,1-2.46,6.86,7.59,7.59,0,0,1-5.8,2.69,6.73,6.73,0,0,1-5.65-2.47,10.16,10.16,0,0,1-1.92-7C381,179.91,381,179.15,381.06,178.4Zm4.77,2.37a4.74,4.74,0,0,0,.75,3,2.51,2.51,0,0,0,2.22,1.11,2.76,2.76,0,0,0,2.27-1.2,5.57,5.57,0,0,0,1-3.14c0-.78.05-1.57.08-2.35a5,5,0,0,0-.72-3.06,2.5,2.5,0,0,0-2.24-1.15,2.76,2.76,0,0,0-2.27,1.2,5.54,5.54,0,0,0-1,3.24C385.89,179.23,385.86,180,385.83,180.77Zm2.71,30.65-3.32-2.2c6.82-11.73,13.35-23.77,19.5-35.83l3.34,2.34C401.91,187.75,395.38,199.75,388.54,211.42Zm8.54-7.79a11,11,0,0,1,2.62-6.75,7.65,7.65,0,0,1,5.7-2.71,6.23,6.23,0,0,1,5.36,2.35c1.28,1.63,1.82,3.89,1.59,6.79-.06.72-.11,1.45-.17,2.18a11,11,0,0,1-2.62,6.59,7.77,7.77,0,0,1-5.72,2.68,6.09,6.09,0,0,1-5.36-2.28,9.16,9.16,0,0,1-1.57-6.59C397,205.13,397,204.38,397.08,203.63Zm4.5,2.23a4.33,4.33,0,0,0,.64,2.82,2.3,2.3,0,0,0,2.08,1.1c2-.07,3.05-1.46,3.27-4.19.06-.77.13-1.54.18-2.31a4.47,4.47,0,0,0-.59-2.92,2.33,2.33,0,0,0-2.09-1.05,2.9,2.9,0,0,0-2.26,1.19,5.41,5.41,0,0,0-1.05,3.07Z"/></g><path class="cls-5" d="M425.12,134.89c-7-.1-12.64,7.53-12.65,17.05h0c0,9.54,5.63,17.15,12.6,17s12.63-7.74,12.65-17-5.6-16.93-12.58-17Z"/><path class="cls-1" d="M426.93,156.21a3,3,0,0,0-.31-1.73,4.4,4.4,0,0,0-1.49-1.51,8.63,8.63,0,0,1-2.56-2.61,5.75,5.75,0,0,1-.59-3.47,5.14,5.14,0,0,1,1.27-3.06,3.14,3.14,0,0,1,2.55-1c.08-.86.17-1.72.25-2.59l1.39.29c-.08.87-.16,1.73-.25,2.6a4.06,4.06,0,0,1,2.17,2.2,7.86,7.86,0,0,1,.46,3.95l-2.11-.42a5.15,5.15,0,0,0-.25-2.47,1.71,1.71,0,0,0-1.28-1.14,1.42,1.42,0,0,0-1.4.39,2.92,2.92,0,0,0-.64,1.73,3,3,0,0,0,.31,1.73,5.35,5.35,0,0,0,1.56,1.55,8.18,8.18,0,0,1,2.54,2.62,6.26,6.26,0,0,1-.77,6.5,3.4,3.4,0,0,1-2.68,1c-.09.78-.18,1.55-.28,2.32l-1.39-.26c.09-.77.18-1.54.28-2.3a4.25,4.25,0,0,1-2.41-2,6.46,6.46,0,0,1-.55-4.07h0l2.09.41a4.1,4.1,0,0,0,.33,2.53,2.09,2.09,0,0,0,3,.67A2.65,2.65,0,0,0,426.93,156.21Z"/><path class="cls-5" d="M495.46,68.08c.52,6.71,4.33,12.57,8.37,13s7-4.56,6.88-11.21-3.69-12.47-8.12-13S494.94,61.39,495.46,68.08Z"/><path class="cls-1" d="M504.41,72.07a2.46,2.46,0,0,0-.25-1.26,3.75,3.75,0,0,0-.94-1.2,7.19,7.19,0,0,1-1.65-2,5,5,0,0,1-.5-2.48,3.31,3.31,0,0,1,.64-2.06,1.56,1.56,0,0,1,1.53-.56c0-.59.06-1.19.08-1.78l.87.3c0,.6-.05,1.2-.07,1.8a3.2,3.2,0,0,1,1.38,1.66,6.64,6.64,0,0,1,.39,2.82l-1.29-.45a4.4,4.4,0,0,0-.22-1.76,1.37,1.37,0,0,0-.81-.89.74.74,0,0,0-.85.17,1.91,1.91,0,0,0-.32,1.12,2.51,2.51,0,0,0,.24,1.27,4.07,4.07,0,0,0,1,1.2,7.26,7.26,0,0,1,1.59,2,4.92,4.92,0,0,1,.43,2.46,3.32,3.32,0,0,1-.65,2.11,1.56,1.56,0,0,1-1.54.48c0,.54,0,1.09-.07,1.64l-.83-.3.06-1.62a3.56,3.56,0,0,1-1.52-1.61,5.75,5.75,0,0,1-.5-2.92h0l1.27.43a3.6,3.6,0,0,0,.3,1.81,1.63,1.63,0,0,0,.91.83.8.8,0,0,0,.93-.13A1.71,1.71,0,0,0,504.41,72.07Z"/><path class="cls-5" d="M355.86,27c-5-.12-8.4,3.68-7.58,8.87s5.64,9.78,10.81,9.95,8.66-4.17,7.7-9.38A11.88,11.88,0,0,0,355.88,27Z"/><path class="cls-1" d="M359.22,38.57a1.72,1.72,0,0,0-.39-1,4,4,0,0,0-1.25-.88,7.29,7.29,0,0,1-2.11-1.43,2.84,2.84,0,0,1-.75-1.89,2,2,0,0,1,.6-1.62,2.38,2.38,0,0,1,1.77-.51c0-.45,0-.89,0-1.33l1,.18c0,.44,0,.88.05,1.32a3.63,3.63,0,0,1,1.8,1.23,3.71,3.71,0,0,1,.72,2.16l-1.6-.27a2.39,2.39,0,0,0-.42-1.36,1.54,1.54,0,0,0-1-.65,1.2,1.2,0,0,0-1,.19,1.08,1.08,0,0,0-.31.88,1.52,1.52,0,0,0,.39,1,4.92,4.92,0,0,0,1.29.88,7.58,7.58,0,0,1,2.09,1.44,2.85,2.85,0,0,1,.74,1.92,2.05,2.05,0,0,1-.65,1.72,2.59,2.59,0,0,1-1.88.48l0,1.32-1.06-.19,0-1.32a4,4,0,0,1-2-1.19,3.32,3.32,0,0,1-.79-2.29h0l1.56.29a2.12,2.12,0,0,0,.49,1.4,1.94,1.94,0,0,0,1.16.61,1.48,1.48,0,0,0,1.14-.15A1.11,1.11,0,0,0,359.22,38.57Z"/><g class="cls-4"><path class="cls-1" d="M317,60.56l-8.23-.13c-.08-1.23-.15-2.45-.23-3.66l8.2.13C316.83,58.11,316.92,59.33,317,60.56Z"/><path class="cls-1" d="M331.05,69l-4.22-.08c-.43-6.05-.91-11.92-1.43-17.56l-4.82,1.54c-.1-1.2-.21-2.39-.31-3.57l8.3-3.05H329C329.78,53.43,330.46,61,331.05,69Z"/><path class="cls-1" d="M351.1,59.81c.34,3.16,0,5.62-1,7.3a5.28,5.28,0,0,1-5,2.46,6.8,6.8,0,0,1-5.47-2.66,13.79,13.79,0,0,1-2.51-7.22c-.13-1.4-.26-2.79-.4-4.18-.32-3.14,0-5.45,1-7a5.25,5.25,0,0,1,4.87-2.22A7.08,7.08,0,0,1,348,48.75a12.74,12.74,0,0,1,2.65,6.89C350.79,57,350.94,58.41,351.1,59.81Zm-4.61-4.69a9.36,9.36,0,0,0-1.17-4,2.73,2.73,0,0,0-2.33-1.3,2,2,0,0,0-2,1.13,7.72,7.72,0,0,0-.31,3.73q.29,2.73.56,5.52a10.63,10.63,0,0,0,1.09,4.22,2.71,2.71,0,0,0,2.37,1.44,2,2,0,0,0,2.07-1.28,9.08,9.08,0,0,0,.3-4C346.88,58.69,346.69,56.9,346.49,55.12Z"/><path class="cls-1" d="M352.75,51a4,4,0,0,1,.79-3.23,3.62,3.62,0,0,1,3-1.14A5.09,5.09,0,0,1,359.93,48a5.39,5.39,0,0,1,1.67,3.39l.15,1.09a4,4,0,0,1-.78,3.29,3.65,3.65,0,0,1-3.05,1.17,5,5,0,0,1-3.38-1.37,5.52,5.52,0,0,1-1.65-3.44C352.84,51.76,352.8,51.4,352.75,51Zm2.85,1.25a2.54,2.54,0,0,0,.67,1.48,1.92,1.92,0,0,0,1.34.6,1.31,1.31,0,0,0,1.18-.53,2.09,2.09,0,0,0,.26-1.5l-.15-1.12a2.57,2.57,0,0,0-.66-1.47,1.84,1.84,0,0,0-1.34-.6,1.35,1.35,0,0,0-1.17.51,2,2,0,0,0-.27,1.52C355.5,51.55,355.55,51.92,355.6,52.29Zm4.34,15.59-2.12-1.28q4.11-9,7.79-17.36l2.12,1.2Q364.05,58.84,359.94,67.88Zm4.13-3.83a4.31,4.31,0,0,1,.83-3.4,3.61,3.61,0,0,1,3-1.19,4.91,4.91,0,0,1,3.36,1.38,5.75,5.75,0,0,1,1.65,3.59c0,.38.09.76.13,1.15a4.4,4.4,0,0,1-.8,3.43,3.6,3.6,0,0,1-3.07,1.23,4.83,4.83,0,0,1-3.4-1.44,5.82,5.82,0,0,1-1.6-3.57C364.15,64.83,364.11,64.44,364.07,64.05Zm2.84,1.32a2.61,2.61,0,0,0,.67,1.53,1.81,1.81,0,0,0,1.33.66c1.14,0,1.63-.67,1.47-2.1-.05-.41-.1-.81-.14-1.22a2.75,2.75,0,0,0-.66-1.54,1.84,1.84,0,0,0-1.33-.62,1.34,1.34,0,0,0-1.19.54,2.16,2.16,0,0,0-.29,1.56C366.82,64.58,366.86,65,366.91,65.37Z"/></g><path class="cls-3" d="M507.33,259.16q-.69,15.18-1.59,30.1c-.25,4.62-3.67,8.36-7.63,8.39q-31.94.35-64.28.6c-4,0-6.15-2.88-4.92-6.7,2.64-8.25,5-17.23,7-26.77,1-4.42,4.8-8.34,8.61-8.59,20.65-1.38,39.95-3,57.38-4.92C505.15,250.92,507.53,254.46,507.33,259.16Z"/><path class="cls-5" d="M505.23,240.91c-4.61.55-9,6.83-9.68,13.92s3,12.37,8.23,11.93,9.4-6.64,9.47-13.85-3.41-12.56-8-12Z"/><path class="cls-1" d="M505.48,248.88a1,1,0,0,0-1.06-.12,1.78,1.78,0,0,0-1.06.89,3.65,3.65,0,0,0-.36,1.92l-1.47.48h0a5.7,5.7,0,0,1,.6-3.11,4,4,0,0,1,1.75-1.73l-.06-1.75,1-.32c0,.57,0,1.15.08,1.73a1.89,1.89,0,0,1,1.78.51,3.54,3.54,0,0,1,.76,2.26,5,5,0,0,1-.49,2.65,7.79,7.79,0,0,1-1.87,2.19,5.2,5.2,0,0,0-1.16,1.29,2.8,2.8,0,0,0-.29,1.37,1.89,1.89,0,0,0,.38,1.2.91.91,0,0,0,1,.19,1.49,1.49,0,0,0,.94-1,4.17,4.17,0,0,0,.27-1.91l1.5-.47a6.56,6.56,0,0,1-.45,3,3.6,3.6,0,0,1-1.62,1.83c0,.62.06,1.24.1,1.87l-1,.3-.09-1.86a2,2,0,0,1-1.81-.61,3.48,3.48,0,0,1-.72-2.21,4.89,4.89,0,0,1,.58-2.65,8.08,8.08,0,0,1,1.91-2.09,3.94,3.94,0,0,0,1.1-1.27,2.86,2.86,0,0,0,.29-1.38A1.74,1.74,0,0,0,505.48,248.88Z"/><g class="cls-4"><path class="cls-1" d="M450.63,281.48l-6.58.29.75-2.93,6.55-.33Z"/><path class="cls-1" d="M463.25,287.29l-11.67.41c.22-.81.43-1.63.64-2.45q3.55-3.24,7-6.64a20.48,20.48,0,0,0,2.16-2.49,5.51,5.51,0,0,0,.94-2,2.79,2.79,0,0,0-.14-2,1.41,1.41,0,0,0-1.44-.64,2.72,2.72,0,0,0-1.93,1,5,5,0,0,0-1.14,2.37l-3.33.19a9.22,9.22,0,0,1,1.42-3.23,8.5,8.5,0,0,1,2.52-2.41,6.75,6.75,0,0,1,3.14-1,4.09,4.09,0,0,1,3.65,1.18,4.68,4.68,0,0,1,.61,4,8.86,8.86,0,0,1-1.22,2.94,21,21,0,0,1-2.92,3.51q-2.38,2.36-4.85,4.63l7.25-.3C463.7,285.32,463.48,286.31,463.25,287.29Z"/><path class="cls-1" d="M478.05,278.85a12.65,12.65,0,0,1-2.51,6.16,6.13,6.13,0,0,1-4.62,2.24c-1.84.07-3.1-.54-3.78-1.84s-.75-3.2-.25-5.75c.24-1.16.48-2.34.71-3.51a14.34,14.34,0,0,1,2.58-6.26,6,6,0,0,1,4.39-2.43,3.42,3.42,0,0,1,3.64,1.84c.69,1.35.85,3.35.44,6Zm-2.55-3.73a7.94,7.94,0,0,0,.06-3.51,1.35,1.35,0,0,0-1.52-1,2.35,2.35,0,0,0-1.85,1.17,9.37,9.37,0,0,0-1.18,3.32c-.29,1.57-.59,3.12-.89,4.67a7.71,7.71,0,0,0-.14,3.42,1.38,1.38,0,0,0,1.55,1.05,2.41,2.41,0,0,0,2-1.17,9.22,9.22,0,0,0,1.19-3.36C475,278.19,475.23,276.66,475.5,275.12Z"/><path class="cls-1" d="M481.41,271a5.65,5.65,0,0,1,1.37-3,3.88,3.88,0,0,1,2.61-1.34,2.42,2.42,0,0,1,2.31.94,4.06,4.06,0,0,1,.55,3c-.05.33-.09.66-.13,1a5.29,5.29,0,0,1-1.34,3,3.84,3.84,0,0,1-2.66,1.27,2.55,2.55,0,0,1-2.36-1,3.8,3.8,0,0,1-.5-2.94Zm1.93.9a1.92,1.92,0,0,0,.19,1.29.93.93,0,0,0,.92.42,1.38,1.38,0,0,0,1-.57,2.7,2.7,0,0,0,.55-1.37c0-.34.09-.68.13-1a2,2,0,0,0-.17-1.31.91.91,0,0,0-.92-.43,1.49,1.49,0,0,0-1,.57,2.82,2.82,0,0,0-.56,1.42Zm0,13.18-1.44-.94c3.51-5.15,6.83-10.48,9.93-15.93l1.38.94C490.13,274.59,486.84,279.92,483.34,285.07Zm4.12-3.49a5.34,5.34,0,0,1,1.38-3,4,4,0,0,1,2.65-1.28,2.66,2.66,0,0,1,2.39,1,4.06,4.06,0,0,1,.62,3c0,.33-.07.66-.11,1a5,5,0,0,1-1.31,3,3.83,3.83,0,0,1-2.73,1.23,2.75,2.75,0,0,1-2.46-1,3.69,3.69,0,0,1-.57-2.9C487.37,282.24,487.42,281.91,487.46,281.58Zm2,.93a1.77,1.77,0,0,0,.23,1.25,1,1,0,0,0,.95.48c.91-.05,1.45-.68,1.59-1.9,0-.34.09-.69.13-1a1.9,1.9,0,0,0-.22-1.29,1,1,0,0,0-.94-.44,1.44,1.44,0,0,0-1,.55,2.59,2.59,0,0,0-.56,1.37C489.56,281.84,489.51,282.18,489.47,282.51Z"/></g><path class="cls-3" d="M309.83,266.38c-.88,8.9-1.89,16.95-3,23.92-.53,3.24-4.16,5.61-8.06,5.63q-31.8.12-63.67.05c-3.9,0-7.38-2.35-7.73-5.56-.74-6.92-1.4-14.94-2-23.81a7.14,7.14,0,0,1,7.33-7.58c23.35.17,46.87.11,70.1-.2A6.82,6.82,0,0,1,309.83,266.38Z"/><path class="cls-5" d="M307.2,249.31c-6.62.09-12.28,5.82-12.68,12.29a10.22,10.22,0,0,0,10.7,11.12A13.07,13.07,0,0,0,318,261.27a10.62,10.62,0,0,0-10.76-12Z"/><path class="cls-1" d="M307.54,256.91a2,2,0,0,0-1.45-.21,2.27,2.27,0,0,0-1.43.74,2.41,2.41,0,0,0-.46,1.76l-2,.32h0a3.74,3.74,0,0,1,.75-2.85,4.51,4.51,0,0,1,2.36-1.47c0-.55-.07-1.1-.1-1.66l1.33-.22.12,1.65a3.61,3.61,0,0,1,2.45.64,2.81,2.81,0,0,1,1,2.17,3.27,3.27,0,0,1-.72,2.4,8.38,8.38,0,0,1-2.51,1.85,5.46,5.46,0,0,0-1.54,1.07,1.81,1.81,0,0,0-.37,1.21,1.46,1.46,0,0,0,.5,1.1,1.6,1.6,0,0,0,1.27.25,1.69,1.69,0,0,0,1.23-.79,2.63,2.63,0,0,0,.38-1.69l2-.3a4.13,4.13,0,0,1-.66,2.67,4,4,0,0,1-2.14,1.5c0,.55.07,1.09.1,1.64l-1.31.2c0-.55-.06-1.09-.1-1.64a3.35,3.35,0,0,1-2.3-.67,2.77,2.77,0,0,1-1-2,3.13,3.13,0,0,1,.72-2.35,8.3,8.3,0,0,1,2.52-1.76,4,4,0,0,0,1.48-1.07,1.93,1.93,0,0,0,.4-1.25A1.46,1.46,0,0,0,307.54,256.91Z"/><g class="cls-4"><path class="cls-1" d="M247.38,282.57l-7,0c0-.83-.08-1.68-.13-2.54l7,0C247.33,280.89,247.35,281.73,247.38,282.57Z"/><path class="cls-1" d="M262.42,287.84c-4.06,0-8.12,0-12.18,0,0-.66,0-1.34-.05-2,1.88-1.72,3.8-3.5,5.74-5.34a12.84,12.84,0,0,0,1.79-2.05,3.1,3.1,0,0,0,.58-1.7,2.39,2.39,0,0,0-.62-1.75,2.33,2.33,0,0,0-1.77-.65,2.49,2.49,0,0,0-1.95.78,2.89,2.89,0,0,0-.69,2h-3.65a5.1,5.1,0,0,1,.75-2.8,5.38,5.38,0,0,1,2.24-2,7.28,7.28,0,0,1,3.35-.75,6.89,6.89,0,0,1,4.44,1.29,4.27,4.27,0,0,1,1.56,3.55,5.08,5.08,0,0,1-.73,2.49,13.41,13.41,0,0,1-2.4,2.87l-4.08,3.7h7.7Z"/><path class="cls-1" d="M276.88,281.52a7.25,7.25,0,0,1-1.79,4.88,6.11,6.11,0,0,1-4.55,1.63,5.71,5.71,0,0,1-4.4-1.58,6.57,6.57,0,0,1-1.5-4.74c0-1,0-1.95.05-2.95a8.1,8.1,0,0,1,1.69-5.32,6,6,0,0,1,4.68-1.89,5.6,5.6,0,0,1,4.56,1.84,7.43,7.43,0,0,1,1.4,5.16C277,279.56,276.93,280.54,276.88,281.52Zm-3.46-3.25a5.47,5.47,0,0,0-.52-3,2.07,2.07,0,0,0-1.92-.95,2.21,2.21,0,0,0-1.93.92,5.49,5.49,0,0,0-.72,2.81c0,1.33-.07,2.63-.1,3.91a5.09,5.09,0,0,0,.52,2.82,2,2,0,0,0,1.88.89,2.19,2.19,0,0,0,1.92-.87,5.23,5.23,0,0,0,.72-2.7C273.32,280.84,273.37,279.57,273.42,278.27Z"/><path class="cls-1" d="M279.6,275.05a3.46,3.46,0,0,1,1.23-2.56,4.38,4.38,0,0,1,2.95-1,4,4,0,0,1,2.86,1,3.08,3.08,0,0,1,.93,2.61l-.06.84a3.34,3.34,0,0,1-1.26,2.48,4.56,4.56,0,0,1-2.92.93,4.06,4.06,0,0,1-2.81-.9,3,3,0,0,1-1-2.53C279.57,275.6,279.58,275.32,279.6,275.05Zm2.37.88a1.41,1.41,0,0,0,.37,1.1,1.5,1.5,0,0,0,1.11.41,1.56,1.56,0,0,0,1.63-1.57l.06-.86a1.48,1.48,0,0,0-.35-1.13,1.41,1.41,0,0,0-1.12-.42,1.66,1.66,0,0,0-1.16.43,1.73,1.73,0,0,0-.49,1.19C282,275.36,282,275.65,282,275.93Zm1.54,10.75-1.67-.77q4.79-5.9,9.8-12.67l1.71.88C290,278.59,286.72,282.79,283.51,286.68Zm4.17-2.6a3.2,3.2,0,0,1,1.28-2.34,4.7,4.7,0,0,1,2.91-.92,4,4,0,0,1,2.76.87,2.63,2.63,0,0,1,.83,2.4c0,.25,0,.5-.08.75a3.12,3.12,0,0,1-1.3,2.25,4.73,4.73,0,0,1-2.88.85,4,4,0,0,1-2.73-.82,2.53,2.53,0,0,1-.86-2.26C287.63,284.6,287.65,284.34,287.68,284.08Zm2.29.8a1.17,1.17,0,0,0,.34,1,1.4,1.4,0,0,0,1.07.39,1.43,1.43,0,0,0,1.63-1.41l.09-.8a1.23,1.23,0,0,0-.32-1,1.42,1.42,0,0,0-1.08-.38,1.68,1.68,0,0,0-1.15.4,1.51,1.51,0,0,0-.51,1.06C290,284.36,290,284.62,290,284.88Z"/></g><g class="cls-4"><path class="cls-1" d="M446.12,97.39,437.33,97c-.14-1.65-.28-3.29-.43-4.92l8.8.45Q445.93,94.95,446.12,97.39Z"/><path class="cls-1" d="M452.69,90.49l2.31.14a2.33,2.33,0,0,0,2.32-1,4.67,4.67,0,0,0,.5-3,5,5,0,0,0-1.06-2.86,3.08,3.08,0,0,0-2.26-1.14,2.28,2.28,0,0,0-2,.79,3.05,3.05,0,0,0-.59,2.38l-4.4-.26a8.44,8.44,0,0,1,.5-4.15,5.47,5.47,0,0,1,2.3-2.72,6,6,0,0,1,3.56-.79,8,8,0,0,1,5.63,2.61,10.6,10.6,0,0,1,2.55,6.34,7.44,7.44,0,0,1-.55,3.71,5.35,5.35,0,0,1-2.11,2.52,7.07,7.07,0,0,1,2.91,2.9,10.62,10.62,0,0,1,1.2,4.37,8.79,8.79,0,0,1-1.6,6.38,6.08,6.08,0,0,1-5.34,2.21,7.58,7.58,0,0,1-5.49-2.68,10.76,10.76,0,0,1-2.57-6.53l4.38.23a4.83,4.83,0,0,0,1.13,2.86,3.29,3.29,0,0,0,2.34,1.21,2.46,2.46,0,0,0,2.3-1,4.4,4.4,0,0,0,.64-3c-.22-3-1.52-4.61-3.9-4.75l-2.3-.13C453,93.62,452.83,92.05,452.69,90.49Z"/><path class="cls-1" d="M479.08,97.41c.28,4.11-.1,7.23-1.09,9.36a4.68,4.68,0,0,1-4.79,3,6.41,6.41,0,0,1-5.27-3.55c-1.32-2.24-2.14-5.4-2.48-9.44-.14-1.85-.29-3.69-.45-5.53-.36-4.17-.06-7.27.94-9.31a4.6,4.6,0,0,1,4.87-2.79,6.77,6.77,0,0,1,5.37,3.56A21.11,21.11,0,0,1,478.69,92Zm-4.37-6.29a16.06,16.06,0,0,0-1.14-5.41,2.8,2.8,0,0,0-2.31-1.83,1.82,1.82,0,0,0-2,1.43,13.32,13.32,0,0,0-.28,5c.2,2.41.39,4.84.57,7.27a18.16,18.16,0,0,0,1.07,5.51,2.68,2.68,0,0,0,2.27,1.93,1.92,1.92,0,0,0,2-1.59,15.3,15.3,0,0,0,.33-5.19Q475,94.65,474.71,91.12Z"/><path class="cls-1" d="M480.23,85.94a6.6,6.6,0,0,1,.8-4.26,2.93,2.93,0,0,1,2.91-1.4,4.3,4.3,0,0,1,3.16,1.92,8.72,8.72,0,0,1,1.45,4.57c0,.48.07,1,.1,1.44a6.82,6.82,0,0,1-.83,4.25A2.89,2.89,0,0,1,485,93.87,4.22,4.22,0,0,1,481.85,92a8.77,8.77,0,0,1-1.51-4.58C480.3,86.89,480.26,86.41,480.23,85.94Zm2.68,1.76a4.06,4.06,0,0,0,.6,2,1.65,1.65,0,0,0,1.24.84,1.09,1.09,0,0,0,1.11-.65,3.53,3.53,0,0,0,.29-2c0-.49-.07-1-.11-1.48a4.24,4.24,0,0,0-.57-2,1.66,1.66,0,0,0-1.26-.85,1.11,1.11,0,0,0-1.12.63,3.54,3.54,0,0,0-.29,2C482.84,86.72,482.87,87.21,482.91,87.7ZM486.52,108l-1.89-1.68c2.66-7.54,5.2-14.92,7.7-22.15l1.86,1.68C491.7,93,489.17,100.41,486.52,108Zm3.82-4.75a7.24,7.24,0,0,1,.87-4.3A2.8,2.8,0,0,1,494,97.48a3.78,3.78,0,0,1,2.87,1.88,9,9,0,0,1,1.23,4.58l.06,1.44a7.64,7.64,0,0,1-.86,4.26,2.72,2.72,0,0,1-2.67,1.47,3.69,3.69,0,0,1-2.88-1.88,8.81,8.81,0,0,1-1.28-4.53C490.39,104.2,490.37,103.7,490.34,103.2ZM492.8,105a4.22,4.22,0,0,0,.52,1.93,1.52,1.52,0,0,0,1.13.87c1,.07,1.43-.8,1.36-2.61,0-.51-.05-1-.07-1.52a4.3,4.3,0,0,0-.49-2,1.48,1.48,0,0,0-1.13-.83,1.07,1.07,0,0,0-1.07.65,3.71,3.71,0,0,0-.32,2C492.75,104,492.77,104.45,492.8,105Z"/></g></svg>