<?xml version="1.0" encoding="utf-8"?>
<!-- Generator: Adobe Illustrator 16.0.0, SVG Export Plug-In . SVG Version: 6.00 Build 0)  -->
<!DOCTYPE svg PUBLIC "-//W3C//DTD SVG 1.1//EN" "http://www.w3.org/Graphics/SVG/1.1/DTD/svg11.dtd">
<svg version="1.1" id="Layer_1" xmlns="http://www.w3.org/2000/svg" xmlns:xlink="http://www.w3.org/1999/xlink" x="0px" y="0px"
	 width="300px" height="300px" viewBox="0 0 300 300" enable-background="new 0 0 300 300" xml:space="preserve">
<radialGradient id="SVGID_1_" cx="150" cy="150" r="150" gradientUnits="userSpaceOnUse">
	<stop  offset="0" style="stop-color:#FFC000"/>
	<stop  offset="1" style="stop-color:#FFC000;stop-opacity:0"/>
</radialGradient>
<circle fill="url(#SVGID_1_)" cx="150" cy="150" r="150"/>
<circle fill="#FFC000" cx="149" cy="150" r="102"/>
<g>
	<circle fill="#FFFFFF" cx="125.746" cy="124.315" r="13.734"/>
	<circle fill="#FFFFFF" cx="174.186" cy="124.315" r="13.734"/>
	<g>
		<path fill="#FFFFFF" d="M108.386,155.169c-0.167-3.846,2.846-7.169,6.695-7.169h68.838c3.85,0,6.862,3.323,6.695,7.169
			c0,0-1.923,44.073-41.114,44.073S108.386,155.169,108.386,155.169z"/>
	</g>
</g>
<radialGradient id="SVGID_2_" cx="-188" cy="150" r="150" gradientUnits="userSpaceOnUse">
	<stop  offset="0" style="stop-color:#3FA9F5"/>
	<stop  offset="1" style="stop-color:#3FA9F5;stop-opacity:0"/>
</radialGradient>
<circle fill="url(#SVGID_2_)" cx="-188" cy="150" r="150"/>
<circle fill="#558ED5" cx="-189" cy="150" r="102"/>
<g>
	<polygon fill="#FFFFFF" points="-133.943,118 -244,118 -244,119.096 -189.397,147.972 	"/>
	<polygon fill="#FFFFFF" points="-134,182 -134,123 -133.943,123 -189.397,152.179 -244,122.51 -244,182 	"/>
</g>
<g>
	<radialGradient id="SVGID_3_" cx="-527" cy="150" r="150" gradientUnits="userSpaceOnUse">
		<stop  offset="0" style="stop-color:#04D138"/>
		<stop  offset="1" style="stop-color:#04D138;stop-opacity:0"/>
	</radialGradient>
	<circle fill="url(#SVGID_3_)" cx="-527" cy="150" r="150"/>
	<circle fill="#04D138" cx="-527" cy="150" r="102"/>
	<g>
		<path fill-rule="evenodd" clip-rule="evenodd" fill="#FFFFFF" d="M-541.855,197.449c24.242-24.109,48.63-48.365,72.803-72.407
			c-4.459-4.668-9.573-10.024-16.667-17.45c-18.479,19.499-36.601,38.619-56.252,59.355c-9.462-10.554-17.729-19.778-26.323-29.366
			c-6.274,6.262-11.684,11.659-16.652,16.617C-569.97,169.232-555.396,183.858-541.855,197.449z"/>
		<path fill-rule="evenodd" clip-rule="evenodd" fill="#FFFFFF" d="M-541.855,197.449c-13.541-13.591-28.114-28.217-43.092-43.251
			c4.969-4.958,10.378-10.355,16.652-16.617c8.594,9.588,16.861,18.813,26.323,29.366c19.651-20.736,37.772-39.856,56.252-59.355
			c7.094,7.426,12.208,12.782,16.667,17.45C-493.226,149.084-517.613,173.34-541.855,197.449z"/>
	</g>
</g>
<g>
	<circle fill="#E2E2E2" cx="-584.947" cy="66.056" r="36.056"/>
	<g>
		<path fill="#6D6D6D" d="M-579.875,47.864v36.384h-7.817V56.699c-0.431,0.381-0.94,0.741-1.527,1.081
			c-0.587,0.339-1.212,0.645-1.874,0.917c-0.662,0.273-1.349,0.505-2.06,0.695c-0.712,0.19-1.415,0.327-2.11,0.41V53.2
			c2.035-0.596,3.955-1.357,5.757-2.284c1.804-0.926,3.434-1.944,4.89-3.053H-579.875z"/>
	</g>
</g>
<g>
	<circle fill="#E2E2E2" cx="-246.947" cy="66.056" r="36.056"/>
	<g>
		<path fill="#6D6D6D" d="M-250.985,76.293h15.089v6.502h-23.676v-2.681c0-1.819,0.305-3.454,0.917-4.901s1.381-2.747,2.309-3.896
			c0.926-1.15,1.939-2.167,3.041-3.053c1.1-0.885,2.146-1.684,3.14-2.395c1.042-0.745,1.956-1.456,2.742-2.134
			c0.786-0.679,1.448-1.354,1.985-2.023c0.538-0.67,0.938-1.348,1.204-2.035c0.264-0.687,0.396-1.419,0.396-2.197
			c0-1.522-0.43-2.672-1.29-3.45c-0.861-0.777-2.176-1.166-3.946-1.166c-3.062,0-5.991,1.216-8.786,3.648v-6.899
			c3.094-2.002,6.585-3.003,10.473-3.003c1.804,0,3.421,0.235,4.853,0.707c1.431,0.472,2.643,1.146,3.636,2.023
			c0.993,0.876,1.75,1.939,2.271,3.188c0.521,1.25,0.781,2.643,0.781,4.182c0,1.638-0.252,3.095-0.757,4.368
			c-0.505,1.274-1.175,2.433-2.01,3.475c-0.836,1.042-1.799,1.998-2.891,2.866c-1.092,0.869-2.226,1.709-3.4,2.52
			c-0.795,0.563-1.56,1.121-2.296,1.675c-0.736,0.555-1.385,1.101-1.948,1.638c-0.563,0.539-1.009,1.064-1.339,1.576
			C-250.82,75.343-250.985,75.83-250.985,76.293z"/>
	</g>
</g>
<circle fill="#E2E2E2" cx="91.053" cy="66.057" r="36.056"/>
<g>
	<path fill="#6D6D6D" d="M79.711,81.63v-6.825c2.383,1.737,5.164,2.606,8.339,2.606c2.002,0,3.563-0.43,4.68-1.291
		c1.115-0.86,1.675-2.061,1.675-3.599c0-1.588-0.692-2.812-2.073-3.673c-1.38-0.86-3.279-1.291-5.693-1.291h-3.304v-6.005h3.054
		c4.634,0,6.95-1.539,6.95-4.617c0-2.895-1.778-4.343-5.335-4.343c-2.383,0-4.7,0.77-6.95,2.308v-6.403
		c2.498-1.256,5.409-1.885,8.736-1.885c3.639,0,6.472,0.819,8.498,2.457c2.028,1.637,3.042,3.763,3.042,6.377
		c0,4.65-2.359,7.561-7.075,8.736v0.124c2.516,0.315,4.501,1.229,5.958,2.743c1.456,1.513,2.184,3.371,2.184,5.571
		c0,3.326-1.217,5.957-3.648,7.892c-2.432,1.937-5.791,2.904-10.076,2.904C84.999,83.417,82.012,82.821,79.711,81.63z"/>
</g>
</svg>
