<?xml version="1.0" encoding="utf-8"?>
<!-- Generator: Adobe Illustrator 16.0.0, SVG Export Plug-In . SVG Version: 6.00 Build 0)  -->
<!DOCTYPE svg PUBLIC "-//W3C//DTD SVG 1.1//EN" "http://www.w3.org/Graphics/SVG/1.1/DTD/svg11.dtd">
<svg version="1.1" id="Layer_1" xmlns="http://www.w3.org/2000/svg" xmlns:xlink="http://www.w3.org/1999/xlink" x="0px" y="0px"
	 width="220.837px" height="59.415px" viewBox="0 0 220.837 59.415" enable-background="new 0 0 220.837 59.415"
	 xml:space="preserve">
<g>
	<path fill="#FDBB2B" d="M31.799,18.002c-0.622-0.404-1.424-0.607-2.408-0.607c-2.603,0-3.904,1.699-3.904,5.097v3.558h5.531v2.429
		h-5.531v19.783h-2.776V28.479h-3.883V26.05h3.883v-3.731c0-1.113,0.141-2.122,0.423-3.026c0.282-0.904,0.697-1.678,1.247-2.321
		c0.549-0.643,1.24-1.139,2.072-1.486c0.831-0.347,1.79-0.521,2.874-0.521c1.041,0,1.865,0.138,2.473,0.412V18.002z"/>
	<path fill="#FDBB2B" d="M44.879,48.002c-0.955,0.477-1.996,0.715-3.124,0.715c-3.587,0-5.38-2.067-5.38-6.203V28.479h-3.904V26.05
		h3.904v-5.597l2.777-0.911v6.507h5.727v2.429h-5.727v13.601c0,1.504,0.246,2.588,0.737,3.254c0.492,0.664,1.323,0.997,2.495,0.997
		c0.868,0,1.699-0.261,2.495-0.78V48.002z"/>
</g>
<g>
	<path fill="#FFFFFF" d="M79.929,17.877c-0.622-0.404-1.424-0.607-2.408-0.607c-2.603,0-3.904,1.699-3.904,5.097v3.558h5.531v2.429
		h-5.531v19.783h-2.776V28.354h-3.883v-2.429h3.883v-3.731c0-1.113,0.141-2.122,0.423-3.026c0.282-0.904,0.697-1.678,1.247-2.321
		c0.549-0.643,1.24-1.139,2.072-1.486c0.831-0.347,1.79-0.521,2.874-0.521c1.041,0,1.865,0.138,2.473,0.412V17.877z"/>
	<path fill="#FFFFFF" d="M97.196,48.137v-3.774h-0.087c-1.504,2.863-3.839,4.295-7.006,4.295c-5.278,0-7.917-3.225-7.917-9.675
		V25.925h2.776v12.538c0,2.66,0.474,4.627,1.421,5.899c0.947,1.272,2.397,1.909,4.349,1.909c0.954,0,1.825-0.185,2.614-0.553
		c0.788-0.369,1.467-0.891,2.039-1.563c0.571-0.672,1.016-1.479,1.334-2.418c0.318-0.94,0.477-1.981,0.477-3.124V25.925h2.776
		v22.212H97.196z"/>
	<path fill="#FFFFFF" d="M122.119,48.137V35.339c0-5.018-1.822-7.527-5.466-7.527c-0.969,0-1.865,0.192-2.689,0.575
		c-0.825,0.383-1.537,0.915-2.137,1.594c-0.601,0.68-1.07,1.486-1.41,2.418c-0.34,0.933-0.51,1.941-0.51,3.026v12.711h-2.776V25.925
		h2.776v3.861h0.087c1.648-2.921,4.128-4.381,7.44-4.381c2.43,0,4.281,0.788,5.553,2.364s1.909,3.854,1.909,6.833v13.535H122.119z"
		/>
	<path fill="#FFFFFF" d="M141.121,47.877c-0.954,0.477-1.995,0.715-3.123,0.715c-3.587,0-5.38-2.067-5.38-6.203V28.354h-3.904
		v-2.429h3.904v-5.597l2.776-0.911v6.507h5.727v2.429h-5.727v13.601c0,1.504,0.246,2.588,0.738,3.254
		c0.491,0.664,1.322,0.997,2.494,0.997c0.867,0,1.699-0.261,2.494-0.78V47.877z"/>
	<path fill="#FFFFFF" d="M154.439,48.658c-1.648,0-3.127-0.274-4.436-0.824s-2.426-1.327-3.352-2.332s-1.635-2.208-2.125-3.611
		c-0.492-1.402-0.738-2.957-0.738-4.663c0-1.852,0.261-3.507,0.781-4.968s1.262-2.701,2.223-3.72
		c0.962-1.02,2.123-1.797,3.482-2.332c1.359-0.535,2.877-0.802,4.555-0.802c1.605,0,3.051,0.264,4.338,0.792
		s2.379,1.291,3.275,2.289c0.896,0.998,1.584,2.212,2.061,3.644c0.479,1.432,0.717,3.059,0.717,4.88c0,1.735-0.25,3.315-0.748,4.739
		c-0.5,1.426-1.212,2.65-2.137,3.678c-0.926,1.026-2.055,1.822-3.385,2.386S156.117,48.658,154.439,48.658z M154.656,27.813
		c-1.215,0-2.313,0.209-3.297,0.629s-1.826,1.03-2.527,1.833c-0.701,0.802-1.24,1.786-1.615,2.95
		c-0.377,1.165-0.564,2.483-0.564,3.959c0,1.388,0.188,2.64,0.564,3.753c0.375,1.113,0.907,2.068,1.594,2.863
		c0.688,0.795,1.521,1.406,2.506,1.832c0.982,0.428,2.082,0.641,3.297,0.641c1.244,0,2.343-0.207,3.297-0.619
		c0.955-0.412,1.764-1.012,2.43-1.8c0.665-0.788,1.168-1.753,1.508-2.896s0.51-2.443,0.51-3.904c0-2.994-0.666-5.282-1.996-6.866
		S157.128,27.813,154.656,27.813z"/>
	<path fill="#FFFFFF" d="M181.835,28.767c-0.65-0.477-1.489-0.716-2.516-0.716c-0.738,0-1.389,0.141-1.953,0.423
		c-0.563,0.282-1.059,0.661-1.485,1.139c-0.427,0.477-0.788,1.03-1.085,1.659c-0.297,0.629-0.535,1.284-0.715,1.963
		c-0.182,0.68-0.312,1.367-0.391,2.06c-0.08,0.695-0.119,1.354-0.119,1.975v10.867h-2.756V25.925h2.756v4.75h0.086
		c0.261-0.81,0.59-1.537,0.987-2.18c0.397-0.643,0.856-1.186,1.378-1.627c0.52-0.441,1.088-0.777,1.702-1.009
		c0.614-0.231,1.262-0.347,1.941-0.347c0.448,0,0.849,0.029,1.204,0.086c0.354,0.058,0.676,0.145,0.965,0.26V28.767z"/>
	<path fill="#FFFFFF" d="M187.237,20.307c-0.535,0-0.998-0.188-1.388-0.564c-0.391-0.376-0.586-0.853-0.586-1.432
		c0-0.564,0.195-1.03,0.586-1.399c0.39-0.369,0.853-0.553,1.388-0.553c0.274,0,0.534,0.047,0.78,0.141
		c0.246,0.094,0.459,0.228,0.641,0.401c0.18,0.174,0.325,0.38,0.434,0.618c0.108,0.239,0.162,0.503,0.162,0.792
		c0,0.275-0.051,0.535-0.151,0.781c-0.101,0.246-0.246,0.459-0.434,0.64c-0.188,0.181-0.401,0.322-0.64,0.423
		S187.526,20.307,187.237,20.307z M185.871,48.137V25.925h2.775v22.212H185.871z"/>
	<path fill="#FFFFFF" d="M208.603,48.137V44.19h-0.087c-0.724,1.417-1.71,2.516-2.96,3.297c-1.252,0.781-2.666,1.171-4.241,1.171
		c-1.07,0-2.036-0.151-2.896-0.456c-0.861-0.303-1.592-0.733-2.191-1.29s-1.063-1.226-1.389-2.007
		c-0.324-0.78-0.487-1.641-0.487-2.581c0-2.01,0.622-3.611,1.865-4.805c1.243-1.192,3.124-1.97,5.64-2.331l6.746-0.977
		c0-4.266-1.656-6.399-4.967-6.399c-2.59,0-4.989,0.947-7.202,2.841v-3.037c0.463-0.333,0.987-0.632,1.573-0.9
		c0.585-0.267,1.203-0.499,1.854-0.694c0.651-0.195,1.32-0.347,2.008-0.456c0.686-0.108,1.355-0.163,2.006-0.163
		c2.473,0,4.342,0.694,5.607,2.082s1.897,3.457,1.897,6.204v14.446H208.603z M202.876,37.356c-0.998,0.146-1.852,0.326-2.56,0.543
		s-1.294,0.51-1.757,0.879c-0.463,0.368-0.803,0.824-1.02,1.366s-0.325,1.212-0.325,2.007c0,0.593,0.104,1.143,0.314,1.648
		s0.513,0.943,0.911,1.313c0.397,0.368,0.882,0.654,1.453,0.856s1.219,0.304,1.941,0.304c0.983,0,1.887-0.188,2.711-0.564
		c0.824-0.375,1.537-0.896,2.137-1.562s1.07-1.46,1.41-2.386s0.51-1.931,0.51-3.016v-2.19L202.876,37.356z"/>
	<path fill="#FFFFFF" d="M218.06,48.137V15.253h2.777v32.884H218.06z"/>
</g>
<g>
	<path fill="#FFFFFF" d="M52.362,59.415H0L15.779,0h52.362L52.362,59.415z M2.773,57.415h48.146L65.367,2H17.221L2.773,57.415z"/>
</g>
</svg>